<svg viewBox="0 0 330 200" xmlns="http://www.w3.org/2000/svg"><g><g><g><g><g><line x1="60" y1="178" x2="55" y2="178" style="visibility: inherit;" fill="rgb(0, 0, 0)" stroke="rgb(204, 204, 204)" stroke-width="1px"></line><line x1="60" y1="161.8181818181818" x2="55" y2="161.8181818181818" style="visibility: inherit;" fill="rgb(0, 0, 0)" stroke="rgb(204, 204, 204)" stroke-width="1px"></line><line x1="60" y1="145.63636363636363" x2="55" y2="145.63636363636363" style="visibility: inherit;" fill="rgb(0, 0, 0)" stroke="rgb(204, 204, 204)" stroke-width="1px"></line><line x1="60" y1="129.45454545454544" x2="55" y2="129.45454545454544" style="visibility: inherit;" fill="rgb(0, 0, 0)" stroke="rgb(204, 204, 204)" stroke-width="1px"></line><line x1="60" y1="113.27272727272727" x2="55" y2="113.27272727272727" style="visibility: inherit;" fill="rgb(0, 0, 0)" stroke="rgb(204, 204, 204)" stroke-width="1px"></line><line x1="60" y1="97.0909090909091" x2="55" y2="97.0909090909091" style="visibility: inherit;" fill="rgb(0, 0, 0)" stroke="rgb(204, 204, 204)" stroke-width="1px"></line><line x1="60" y1="80.90909090909092" x2="55" y2="80.90909090909092" style="visibility: inherit;" fill="rgb(0, 0, 0)" stroke="rgb(204, 204, 204)" stroke-width="1px"></line><line x1="60" y1="64.72727272727275" x2="55" y2="64.72727272727275" style="visibility: inherit;" fill="rgb(0, 0, 0)" stroke="rgb(204, 204, 204)" stroke-width="1px"></line><line x1="60" y1="48.54545454545456" x2="55" y2="48.54545454545456" style="visibility: inherit;" fill="rgb(0, 0, 0)" stroke="rgb(204, 204, 204)" stroke-width="1px"></line><line x1="60" y1="32.363636363636374" x2="55" y2="32.363636363636374" style="visibility: inherit;" fill="rgb(0, 0, 0)" stroke="rgb(204, 204, 204)" stroke-width="1px"></line><line x1="60" y1="16.181818181818187" x2="55" y2="16.181818181818187" style="visibility: inherit;" fill="rgb(0, 0, 0)" stroke="rgb(204, 204, 204)" stroke-width="1px"></line><line x1="60" y1="0" x2="55" y2="0" style="visibility: inherit;" fill="rgb(0, 0, 0)" stroke="rgb(204, 204, 204)" stroke-width="1px"></line></g><g transform="translate(50, 0)"><text x="0" y="178" dx="0em" dy="0.3em" style="text-anchor: end; visibility: hidden; font-family: &quot;Helvetica Neue&quot;, sans-serif; font-size: 12px; font-weight: 200;" fill="rgb(50, 49, 63)" stroke="none" stroke-width="1px">-0.05</text><text x="0" y="161.8181818181818" dx="0em" dy="0.3em" style="text-anchor: end; visibility: inherit; font-family: &quot;Helvetica Neue&quot;, sans-serif; font-size: 12px; font-weight: 200;" fill="rgb(50, 49, 63)" stroke="none" stroke-width="1px">0</text><text x="0" y="145.63636363636363" dx="0em" dy="0.3em" style="text-anchor: end; visibility: hidden; font-family: &quot;Helvetica Neue&quot;, sans-serif; font-size: 12px; font-weight: 200;" fill="rgb(50, 49, 63)" stroke="none" stroke-width="1px">0.05</text><text x="0" y="129.45454545454544" dx="0em" dy="0.3em" style="text-anchor: end; visibility: inherit; font-family: &quot;Helvetica Neue&quot;, sans-serif; font-size: 12px; font-weight: 200;" fill="rgb(50, 49, 63)" stroke="none" stroke-width="1px">0.1</text><text x="0" y="113.27272727272727" dx="0em" dy="0.3em" style="text-anchor: end; visibility: hidden; font-family: &quot;Helvetica Neue&quot;, sans-serif; font-size: 12px; font-weight: 200;" fill="rgb(50, 49, 63)" stroke="none" stroke-width="1px">0.15</text><text x="0" y="97.0909090909091" dx="0em" dy="0.3em" style="text-anchor: end; visibility: inherit; font-family: &quot;Helvetica Neue&quot;, sans-serif; font-size: 12px; font-weight: 200;" fill="rgb(50, 49, 63)" stroke="none" stroke-width="1px">0.2</text><text x="0" y="80.90909090909092" dx="0em" dy="0.3em" style="text-anchor: end; visibility: hidden; font-family: &quot;Helvetica Neue&quot;, sans-serif; font-size: 12px; font-weight: 200;" fill="rgb(50, 49, 63)" stroke="none" stroke-width="1px">0.25</text><text x="0" y="64.72727272727275" dx="0em" dy="0.3em" style="text-anchor: end; visibility: inherit; font-family: &quot;Helvetica Neue&quot;, sans-serif; font-size: 12px; font-weight: 200;" fill="rgb(50, 49, 63)" stroke="none" stroke-width="1px">0.3</text><text x="0" y="48.54545454545456" dx="0em" dy="0.3em" style="text-anchor: end; visibility: hidden; font-family: &quot;Helvetica Neue&quot;, sans-serif; font-size: 12px; font-weight: 200;" fill="rgb(50, 49, 63)" stroke="none" stroke-width="1px">0.35</text><text x="0" y="32.363636363636374" dx="0em" dy="0.3em" style="text-anchor: end; visibility: inherit; font-family: &quot;Helvetica Neue&quot;, sans-serif; font-size: 12px; font-weight: 200;" fill="rgb(50, 49, 63)" stroke="none" stroke-width="1px">0.4</text><text x="0" y="16.181818181818187" dx="0em" dy="0.3em" style="text-anchor: end; visibility: hidden; font-family: &quot;Helvetica Neue&quot;, sans-serif; font-size: 12px; font-weight: 200;" fill="rgb(50, 49, 63)" stroke="none" stroke-width="1px">0.45</text><text x="0" y="0" dx="0em" dy="0.3em" style="text-anchor: end; visibility: hidden; font-family: &quot;Helvetica Neue&quot;, sans-serif; font-size: 12px; font-weight: 200;" fill="rgb(50, 49, 63)" stroke="none" stroke-width="1px">0.5</text></g><line x1="60" y1="0" x2="60" y2="178" fill="rgb(0, 0, 0)" stroke="rgb(204, 204, 204)" stroke-width="1px"></line></g></g><g transform="translate(60, 0)" clip-path="url(#clip_0)"><clipPath id="clip_0"><rect width="270" height="177"></rect></clipPath><g><g><g><line x1="0" y1="0" x2="0" y2="178" fill="rgb(0, 0, 0)" stroke="rgb(60, 60, 60)" stroke-width="1px" opacity="0.25"></line><line x1="33.75" y1="0" x2="33.75" y2="178" fill="rgb(0, 0, 0)" stroke="rgb(60, 60, 60)" stroke-width="1px" opacity="0.25"></line><line x1="67.5" y1="0" x2="67.5" y2="178" fill="rgb(0, 0, 0)" stroke="rgb(60, 60, 60)" stroke-width="1px" opacity="0.25"></line><line x1="101.25" y1="0" x2="101.25" y2="178" fill="rgb(0, 0, 0)" stroke="rgb(60, 60, 60)" stroke-width="1px" opacity="0.25"></line><line x1="135" y1="0" x2="135" y2="178" fill="rgb(0, 0, 0)" stroke="rgb(60, 60, 60)" stroke-width="1px" opacity="0.25"></line><line x1="168.75" y1="0" x2="168.75" y2="178" fill="rgb(0, 0, 0)" stroke="rgb(60, 60, 60)" stroke-width="1px" opacity="0.25"></line><line x1="202.5" y1="0" x2="202.5" y2="178" fill="rgb(0, 0, 0)" stroke="rgb(60, 60, 60)" stroke-width="1px" opacity="0.25"></line><line x1="236.25" y1="0" x2="236.25" y2="178" fill="rgb(0, 0, 0)" stroke="rgb(60, 60, 60)" stroke-width="1px" opacity="0.25"></line><line x1="270" y1="0" x2="270" y2="178" fill="rgb(0, 0, 0)" stroke="rgb(60, 60, 60)" stroke-width="1px" opacity="0.25"></line></g><g><line x1="0" y1="178" x2="270" y2="178" fill="rgb(0, 0, 0)" stroke="rgb(60, 60, 60)" stroke-width="1px" opacity="0.25"></line><line x1="0" y1="161.8181818181818" x2="270" y2="161.8181818181818" fill="rgb(0, 0, 0)" stroke="rgb(60, 60, 60)" stroke-width="1px" opacity="0.25"></line><line x1="0" y1="145.63636363636363" x2="270" y2="145.63636363636363" fill="rgb(0, 0, 0)" stroke="rgb(60, 60, 60)" stroke-width="1px" opacity="0.25"></line><line x1="0" y1="129.45454545454544" x2="270" y2="129.45454545454544" fill="rgb(0, 0, 0)" stroke="rgb(60, 60, 60)" stroke-width="1px" opacity="0.25"></line><line x1="0" y1="113.27272727272727" x2="270" y2="113.27272727272727" fill="rgb(0, 0, 0)" stroke="rgb(60, 60, 60)" stroke-width="1px" opacity="0.25"></line><line x1="0" y1="97.0909090909091" x2="270" y2="97.0909090909091" fill="rgb(0, 0, 0)" stroke="rgb(60, 60, 60)" stroke-width="1px" opacity="0.25"></line><line x1="0" y1="80.90909090909092" x2="270" y2="80.90909090909092" fill="rgb(0, 0, 0)" stroke="rgb(60, 60, 60)" stroke-width="1px" opacity="0.25"></line><line x1="0" y1="64.72727272727275" x2="270" y2="64.72727272727275" fill="rgb(0, 0, 0)" stroke="rgb(60, 60, 60)" stroke-width="1px" opacity="0.25"></line><line x1="0" y1="48.54545454545456" x2="270" y2="48.54545454545456" fill="rgb(0, 0, 0)" stroke="rgb(60, 60, 60)" stroke-width="1px" opacity="0.25"></line><line x1="0" y1="32.363636363636374" x2="270" y2="32.363636363636374" fill="rgb(0, 0, 0)" stroke="rgb(60, 60, 60)" stroke-width="1px" opacity="0.25"></line><line x1="0" y1="16.181818181818187" x2="270" y2="16.181818181818187" fill="rgb(0, 0, 0)" stroke="rgb(60, 60, 60)" stroke-width="1px" opacity="0.25"></line><line x1="0" y1="0" x2="270" y2="0" fill="rgb(0, 0, 0)" stroke="rgb(60, 60, 60)" stroke-width="1px" opacity="0.25"></line></g></g></g><g><g><line x1="0" y1="161.8181818181818" x2="270" y2="161.8181818181818" fill="rgb(0, 0, 0)" stroke="rgb(153, 153, 153)" stroke-width="1.5px"></line></g></g><g><g><line x1="33.75" y1="0" x2="33.75" y2="178" fill="rgb(0, 0, 0)" stroke="rgb(153, 153, 153)" stroke-width="1.5px"></line></g></g><g><g><g><g><g><path style="fill: none;" stroke="rgb(255, 112, 67)" stroke-width="2px" d="M34.0335,75.25650360367517L34.053749999999994,74.76370452479883L34.22925,79.47599350632011L34.384499999999996,86.56280272147237L34.816500000000005,91.31193603328272L34.877250000000004,94.78333537929802L35.295750000000005,97.8789655993346L35.329499999999996,101.80419101487558L35.47125,102.55043093097768L35.59275,101.50206958270195L35.829,103.55817012061432L35.8425,103.64924850047485L35.8965,104.77259126743762L36.591750000000005,105.1121494080751L36.855000000000004,106.0147443806596L36.9495,106.76223097090799L37.368,107.94796028730207L37.55025,107.22369898553661L37.658249999999995,107.60413158126788L37.7055,108.69769244691862L38.0295,109.93168770183227L38.11725,110.47403527498467L38.21175,110.49678471779956L38.279250000000005,109.56954881803615L38.5695,110.27460184806432L38.6235,111.35668616117947L38.954249999999995,110.30231904729109L39.04875,111.53435216462329L39.163500000000006,112.03709831515893L39.204,112.83892624194925L39.393,112.37537438506196L40.128750000000004,112.26224038089444L40.304249999999996,113.46594503251748L40.533750000000005,113.26183738882766L40.594500000000004,114.284290444183L40.92525,113.60194294857534L40.9455,113.55340451583467L41.202000000000005,113.24973132087764L41.714999999999996,114.13363671749724L42.26175,114.49414876473936L42.633,114.66719765086557L42.65325,113.60696766803146L42.747749999999996,114.33711426621858L42.774750000000004,113.87146071340774L43.098749999999995,114.87988244045914L43.146,115.54608550728301L43.375499999999995,115.766319468718L43.443,117.0374322147066L43.6455,117.37046399073529L44.03025,118.44996000525092L44.226,118.59041521612369L44.334,118.02479854838208L44.442,119.04933657851055L44.82,118.0345885497151L45.16425,118.75380844398023L45.28575,119.20729652088383L45.3465,118.96080624269159L45.441,119.42668477149115L45.4545,120.2577359752029L45.47475,120.7217494143024L45.771750000000004,120.48771443379317L46.197,120.62744353388459L46.25775,120.92669113978573L46.3455,120.7243683715046L46.36575,120.55756357893719L46.41975,120.16900302249687L46.68975,120.50657973184556L46.804500000000004,120.13307703648809L46.89225,119.39202231941596L47.25675,120.16421144147228L47.493,121.23741062897695L47.76975,121.04899720527952L47.898,122.7232140833467L48.51225,122.8781503757435L48.59325,123.64000860954728L48.67425,123.55918846626687L48.80925,123.45619955013865L48.843,122.97836415434827L48.84975,123.05107463333522L48.98475,123.35323823488228L49.018499999999996,123.75120908724243L49.322250000000004,124.11319540726961L49.40325,123.59485939126992L49.639500000000005,123.72005715413505L49.875750000000004,121.09491005750124L49.8825,123.66854948744333L50.193000000000005,124.05402783502055L50.30775,124.36958807351266L50.321250000000006,124.79027002186277L50.355,124.50318835022108L50.52375000000001,124.85572910323069L50.5305,124.23102495678856L50.598000000000006,125.06710039143917L50.6115,124.7098076301362L50.64525,125.14772147229044L50.841,124.93455567858328L50.94225,125.1590636361289L50.982749999999996,125.32746169174328L51.873749999999994,125.48614648539954L52.245000000000005,126.91102233970733L52.3395,126.98527415334652L52.57575,125.95398593877346L53.297999999999995,88.51737851353153L53.777249999999995,86.31439799556316L54.07425,88.90247512913886L54.256499999999996,91.816779580782L54.27675,93.02819684840178L54.66824999999999,95.52297561421518L55.08675,97.09623218644738L55.323,98.31591682637816L55.552499999999995,100.00082510550237L55.647,102.62904756515329L55.6605,102.50507461252005L55.667249999999996,102.55272083902581L56.05875,103.48563843839085L56.754,105.7965001803094L57.03075,106.85322758694124L57.239999999999995,107.60438080730003L58.05,107.4116413144207L58.1715,107.24934612527379L58.185,109.48796191159367L58.5225,110.74092254951773L58.9005,110.91391292759882L59.00175,108.23821063639912L59.35275,108.97945351699488L59.494499999999995,110.26504110222214L59.54175,111.09027512516579L59.832,110.89313739218821L60.264,112.17539300185096L60.452999999999996,113.41878449173308L60.641999999999996,114.59827858088607L60.992999999999995,114.93086107029706L61.411500000000004,115.39692631742959L61.48575,115.8315451064964L61.978500000000004,115.51312335139978L62.073,116.05677730705042L62.1135,116.74706313584214L62.28225,116.35642885582752L62.316,116.1271505537836L62.52525,116.09447998792089L62.802,116.76808558425672L62.88975,118.0660482686948L62.90325,117.88248257671759L63.449999999999996,116.85974936332737L64.071,117.28733049041077L64.18575,117.78418721300173L64.3275,119.13512151726803L64.989,120.00200378579223L65.232,120.80134573010181L65.259,121.19697570080288L65.313,121.44931518599229L65.8125,121.40329397765788L66.069,120.39372943072314L66.1635,-232.96909778523616L66.7845,-28.412233031697895L67.2435,9.417228319103828L67.30425,35.51633989791483L67.3245,51.17311392902489L67.83749999999999,64.75716301607582L67.85100000000001,70.48696175319628L68.21549999999999,76.67055067481206L68.4045,81.37254980893442L69.11325000000001,87.86114425258562L69.72075,92.19168567590495L69.82875,96.48150139681772L69.92325,98.8944196429876L70.33500000000001,51.50064380059082L70.4835,55.55758327895069L70.97625000000001,70.54632472839697L70.98975,80.1354004503999L71.20575,87.28992040145859L71.46225,92.18558903557232L71.982,95.95378764989368L72.08325,97.38584998182075L72.38025,97.93219598436778L72.954,100.75061347015809L73.06875,102.65139313459895L73.089,103.89776815670486L73.3185,104.80046092741887L73.33200000000001,105.2149481838428L73.37925,105.39981109402565L73.62225,104.1806770929L73.764,103.09110828557509L73.926,103.954742318667L74.00025000000001,105.26556216744116L74.1825,106.86696407672646L74.3175,107.35996312024686L75.06675,106.83839111292765L75.13425,108.08195731661995L75.47175,107.1330046858815L75.60000000000001,111.00269323192242L75.68775,109.3945192757651L75.72824999999999,109.41051926448915L75.816,110.92793240795606L76.20075,108.52386344625238L76.356,110.38850639120585L76.38974999999999,111.1979443769099L76.55175000000001,110.97184781781576L76.70025000000001,111.66637195785975L76.788,110.2604740912489L76.94999999999999,111.04504432787944L77.598,111.03318734148141L77.75999999999999,112.26021579990005L78.1245,111.4471052196792L78.19200000000001,111.75340222867447L78.32025,110.99746457179747L78.68475,87.8253133437005L78.948,65.19957837598236L78.96825,55.01498954323412L79.04925,56.71931818675037L79.2585,63.047909319975915L79.96050000000001,70.07872777561538L80.0145,72.01066295189322L80.11575,76.44229977711184L80.77050000000001,82.37645436591754L80.946,87.7634252320286L81.0945,91.55743764376706L81.71549999999999,94.61899026518341L81.76950000000001,96.54624641328402L82.04625,98.60044073206882L82.458,33.96660613069196L82.66725,12.84215179223466L83.09925000000001,29.33218576611452L83.22075000000001,44.152286724131244L83.28825,55.66721293247237L83.295,64.38725123734986L83.42325,69.94865104786312L83.57849999999999,41.959244585876746L83.70675,43.85663034402759L84.03750000000001,54.77258132843417L84.105,65.39479411538657L84.12525,70.55110886197654L84.2265,77.79086785940424L84.44925,83.36352444329535L85.11075,88.6666643744303L85.347,91.98662394491936L85.63725,-25.569075597259626L86.13,-3.8426430176257895L86.319,26.595241987400954L86.3865,28.996920477294452L86.62275000000001,50.8357683745503L87.075,65.7317818901879L87.291,75.72335996801944L87.68925,82.05491747873924L87.9255,88.82513969085268L87.99975,92.57816250668773L88.08075,92.87882532369815L88.1955,94.89985822688935L88.965,98.51187014014361L89.20124999999999,99.33900426612075L89.24175000000001,99.83997033869329L89.7075,100.0390814408314L90.0045,102.20412465285806L90.20025,101.87005124084897L90.234,103.28837389161382L90.29475,104.39527746683476L90.90225,105.39999056030798L90.9225,-4.899504114354528L91.1115,-17.629452186325125L91.179,1.5647378828044225L91.5705,32.80564763288646L91.80675000000001,55.430587313148365L92.0295,60.64990097811561L92.03625,65.76726794234092L92.44125,75.9203277283923L93.27825,83.99627954739971L93.2985,90.63679115380216L93.67649999999999,95.62828541910598L93.852,99.31673520926749L93.87225000000001,99.88968988730976L94.014,101.23591424401195L94.06125,102.1979070442002L94.2165,102.98500743837732L94.33125,104.07321630859774L94.45275,104.10640053770132L94.49324999999999,103.18708132669767L94.87125,105.09492474286115L94.92525,105.23895780193368L96.02550000000001,105.77182880283655L96.07275,105.34035703466908L96.255,105.73703316677285L96.633,84.58015354444514L96.849,9.83851328311684L96.99075,20.496105607532115L97.281,39.47488591985322L97.30125,50.1132687791264L97.43625,58.16260789472861L97.48349999999999,67.23929897277411L97.659,73.17860339371586L98.1315,73.33758382210432L98.19225,75.13360651531127L98.2395,76.36479351421995L98.32725,81.71508994346794L98.47575,84.4666136357488L98.73225,86.85880125428503L98.93475,90.05473316231529L99.09,91.79665090046728L99.2115,93.5995777387112L99.684,94.72919483252865L100.17,87.16823303263489L100.19024999999999,83.9394564190627L100.46025,88.25809707614687L100.62225,92.84973045593065L101.061,97.13461094794555L101.58749999999999,100.10525018013429L101.62125,101.80159543341185L101.64150000000001,103.14362120533187L101.817,102.69850179875232L102.11399999999999,102.70833562643297L102.384,103.74450784333222L102.49875,104.96750116103583L102.97800000000001,105.40784644933757L103.113,104.97175459773669L103.16025,102.19212833958574L103.923,104.39643618361235L103.94325,105.0638648628413L104.08500000000001,105.82263810174797L104.48325,106.29113900125486L104.55075,108.84423710111331L104.57775,108.67699509817852L104.7735,107.71328283740358L104.99625,-139.90227009636374L105.462,-32.813817844695706L105.5565,2.9135013685998103L105.66449999999999,-6.496250479166406L105.77924999999999,7.23629297255431L106.04925,30.368799055613465L106.35975,50.838428006116445L106.3665,61.37641097854393L106.515,69.74058747468158L106.56225,75.50476494808382L106.75125,80.33538359792301L106.81875,82.39396231949544L106.92675,84.22140836357114L106.9875,85.8768104184917L107.08200000000001,86.4224855106623L107.33850000000001,76.05340953315965L107.35875,71.14785087764393L107.58825,77.37401486486817L107.61525,80.0721824231781L107.7705,78.86159002072928L107.81099999999999,79.74857300637012L107.8245,79.34301068094443L108.0945,82.29524271421963L108.135,83.78958001140393L108.22274999999999,86.70183207687465L108.25649999999999,86.18015838052145L108.6885,89.58972111411443L108.81675,27.1674042862887L108.8775,24.39441495128429L109.18124999999999,43.84264821511374L109.33649999999999,58.368428870613215L109.35000000000001,68.6051248404288L109.35675,73.90041704514863L109.755,81.77989083579001L109.836,87.32677525745686L110.82825,88.85044952475778L111.18599999999999,90.06372017355467L111.321,93.4084119740447L111.53025000000001,94.35709232512671L111.591,95.6639917431415L111.70575000000001,95.97934792865162L111.82050000000001,96.81724579481498L112.02974999999999,99.21784998331849L112.37400000000001,92.69021882517676L112.52925,92.04471152096389L112.62375,90.14502991966951L113.12325,85.73007161349494L113.89275,88.80443664260062L114.54075,92.12274246353502L114.5745,93.7285367046294L114.66900000000001,96.47057635859724L114.77024999999999,98.24025107299028L114.81750000000001,98.38808478096513L115.02674999999999,99.3972550050634L115.6815,99.7659811343843L115.857,101.95944997737104L115.884,102.21756437895637L115.99199999999999,102.73824909289172L116.2755,104.34557065560298L116.70750000000001,104.1079276026014L116.72775,104.68333958185782L116.83575,103.83049370189568L117.48375,48.32480819373819L117.693,53.8938888120892L117.8415,63.84128818886208L118.48275000000001,69.35567436962995L118.96875,78.19770097832594L119.27924999999999,82.7499498026522L119.46825,88.24187382820776L119.8665,93.08738792614442L119.9745,96.13941941014166L120.18375,99.11427697640312L120.66975000000001,100.73479245582395L120.798,99.58907880310086L121.08825,93.16429045913574L121.22325000000001,93.72211169020562L121.61475,94.64600329993992L121.72949999999999,94.00243617154636L121.91175,94.65149453966849L122.0535,96.71315720329467L122.13449999999999,98.11288139882284L122.23575,100.1090803570577L122.26275,100.3622092284794L122.3775,97.38229448285098L122.62049999999999,98.30729664539768L122.8905,99.607601075243L123.11325000000001,100.55818398419193L123.61274999999999,100.1233448959778L123.85575,-113.45547443004477L124.2405,-7.903974751697575L124.3755,23.698151041121264L124.70625,48.105712523219864L124.902,64.30736260477721L125.1855,75.08320225667097L125.52974999999999,83.77612002725087L125.631,-11.627495479377046L125.685,-12.034773810869495L125.7255,0.564873358020634L126.08324999999999,32.10837498277451L126.10350000000001,50.57733993349849L126.3735,63.508258487312446L126.54225,-0.5377053086967578L126.738,16.25355675266482L126.9675,40.12494918374L127.20375,57.15413453543489L127.35900000000001,69.4744351918087L127.467,76.71378101847628L127.82475,82.59287928741772L127.95975,87.34344688719924L127.97999999999999,88.69261592319366L128.0475,20.20163637215353L128.088,-15.71228989690053L128.2365,4.90128967110428L128.79,18.81737809960694L129.74175,45.209918692670726L130.18725,63.48311861128089L130.19400000000002,74.04738742518167L130.2345,82.78794313695492L130.29524999999998,87.34723225370921L130.41,89.75110056535473L130.491,91.27226844045074L130.5315,91.48688658840986L130.92975,90.42155748738097L131.26725000000002,93.66986037788918L131.5845,93.79708817681367L131.82750000000001,95.77359936556365L131.9895,98.029168649767L132.00975,97.84313632395029L132.516,92.59901738535694L132.5565,89.25930420923486L132.75900000000001,88.91663328303575L132.81975,87.38980811857662L132.84675,88.62342016385809L132.88725,90.52790326495332L133.28549999999998,84.92502907666997L133.50825,87.14198520903577L133.515,86.94203272861387L133.569,90.06346039849176L133.596,91.11380086251509L133.71075000000002,89.92798619107361L134.14275,92.18534873777926L134.27100000000002,93.19548580613856L134.49375,95.17874968552502L134.5005,95.47797776219141L134.6625,97.80304348822389L135.18224999999998,98.29833641914644L135.6075,98.88894744783602L135.91799999999998,99.87365513973322L136.21499999999997,101.79735944989689L136.34324999999998,99.8239489412075L136.7955,102.24701755791047L137.187,68.31478854149069L137.34225,51.65465375587307L137.889,56.67858292235819L138.078,47.95078422010636L138.19275,49.29930357455541L138.20624999999998,50.01721097746362L138.42225,57.85386842538419L138.6315,67.31117477338127L139.02974999999998,75.83169127243579L139.99499999999998,82.2116065849586L140.157,83.92614705523016L140.21775000000002,88.54352550872984L140.25825,90.94160483580127L140.56875,92.6445569067187L140.58900000000003,93.18688297357807L140.71725,94.56009114056995L140.8455,94.69740729276262L141.60825,92.05775448852407L141.70275,92.24532487224985L142.128,93.57744562872212L142.39125,94.77694406873941L142.53300000000002,96.54516168206203L143.01899999999998,97.02345591537623L143.0865,97.27496736660717L143.11350000000002,99.36335605251047L143.43075,99.74516722318248L143.91674999999998,98.5554767632072L144.06525,98.7061888890886L144.18,99.7056528443188L144.4905,100.77526245146989L144.72,101.60171481150388L145.15875,100.90071037355229L145.52325,101.80930490080594L145.69875000000002,102.40882727375077L145.7325,102.59248840894209L146.21175,102.09528202845019L146.45475000000002,103.16951211223113L146.78549999999998,101.40680493832728L147.204,102.57757841518365L147.21075,103.3173594521822L147.37949999999998,103.2540011087372L147.44025,103.83923223057904L147.53475,104.78258290877923L147.81825,103.21426434348976L148.94549999999998,62.199891130133366L149.15475,65.80776249929141L149.38424999999998,22.015903164691593L149.53949999999998,31.058958068068222L149.796,50.43890007194224L149.86350000000002,62.03772159404093L150.11325,69.56065575201504L150.16725,75.29926293498339L150.33599999999998,81.68335019863014L150.4575,84.64227380128341L150.471,85.87908137900614L150.62625,86.27762621082654L150.63299999999998,88.73435607813474L150.63975,89.47251221477413L150.66000000000003,92.29378136197744L150.78825,94.01012708609765L151.02450000000002,93.53867811968117L151.13925,94.21996918218358L151.23375,94.70783569372095L151.3755,95.82795023783791L151.497,97.20166830502434L151.5645,98.17408669596766L152.16525000000001,97.24471876548877L152.25975,96.86596859845176L152.30025,95.79198926301392L152.39475,97.60625149213591L152.4555,98.37632519518057L152.50275,98.41991030501339L152.5095,99.18885870228961L152.70525,98.06247201722226L152.77275,98.84845367278565L152.90775,99.37446426438473L153.3735,92.05206913403977L153.70425,92.35710912898206L153.711,93.51919527135398L153.92700000000002,93.64745846017011L154.18349999999998,93.68767620046677L154.93275,93.16249438313851L154.99349999999998,95.94477323514239L155.10150000000002,96.33503043978983L155.12175,99.17563055191546L155.1825,98.81549613940456L155.3715,99.97937299443653L155.60774999999998,-85.10018741327684L156.843,-15.267162417795276L157.032,18.7128278857098L157.3965,42.385909739959686L157.6935,59.737735424373014L158.29425,73.82243918143986L158.30100000000002,81.82289821147705L158.88825,87.88825973848735L158.94224999999997,89.42155061785881L159.246,92.65868113521532L160.06275000000002,67.92016132686447L160.10999999999999,58.05164108718148L160.30575,64.28554623262006L160.5555,69.92423318640488L160.95375,78.88779846699512L161.27775,58.52484380472046L161.54775,66.70698743947624L161.7165,76.64232774256092L161.84475,81.01371214631614L161.8785,85.55937174465308L162.03375,88.67902469557337L162.18224999999998,91.36940897114708L162.32399999999998,83.03487291481494L162.783,86.96786790328157L163.14075,89.43011916854503L163.53224999999998,93.0115479604568L163.82924999999997,93.85014526485219L163.85625000000002,96.10761893707348L164.025,95.18866652905734L165.27375,97.9093290574213L165.375,99.67247575670733L165.39525,99.87231310478816L165.54375000000002,99.61017828583266L165.58425,99.30153467188912L165.90825,101.38888040306189L166.0095,102.49770486915232L166.2795,100.01573864449445L166.32,100.53971822810348L166.41449999999998,99.1937611174984L166.48874999999998,99.66658361606402L166.5495,100.60724256601043L166.85999999999999,100.39598741305264L166.90725,100.43633594290577L166.93425,100.33834530870361L166.97475,101.56705228500078L167.373,101.94538366151811L167.55525,102.07420678836787L167.7105,102.77625528841104L168.183,103.07018815742717L168.33149999999998,104.41011143377403L168.55425,104.00337195350949L168.669,76.7974078305724L168.71625,69.19078358807234L168.98624999999998,71.12418691503933L169.07399999999998,74.92665869651451L169.10775,77.28901026966375L169.14825,80.56052293644397L169.16850000000002,83.88224015936338L169.6815,89.75797915098663L169.68825,92.37090976672475L169.70175,92.76365582943404L169.98525,94.89657865481209L170.0055,95.44321099827665L170.21475,96.17920385653852L170.397,95.53651886387621L170.41725000000002,97.25242801646944L170.451,99.48711329673968L170.829,100.52344167976361L170.93025,99.17686166125894L170.99099999999999,99.13681528749355L171.00449999999998,99.49771822561198L171.26775,99.15069011762095L171.33525,99.94095873131421L171.42974999999998,101.7037323736249L171.72,103.76415675257599L172.02375,100.2429177756334L172.3005,94.87000005000002L172.38825,94.01709397385599L172.39499999999998,91.86708892326513L172.53,92.19308444280546L172.5435,94.44496824124202L172.57725000000002,94.15442081557957L172.6515,96.09361103173805L173.394,95.570429845812L173.40075000000002,97.8937849958259L173.54250000000002,99.76596431924376L174.0015,100.169501330055L174.00825,100.42881884800137L174.02849999999998,101.41459143426968L174.03525,101.50088050091077L174.2985,102.8528637015613L174.35925,103.53362851555626L174.52125,85.2545840227443L174.744,88.48125228839689L174.91275,92.47025846629431L175.15575,96.67489521670342L175.41225,97.81573865773895L175.68225,98.84349315469309L175.73624999999998,100.05064102744694L175.95225,100.00398990245948L176.04000000000002,102.19309486262104L176.47199999999998,100.67312197817083L176.91074999999998,102.09424532882727L177.066,101.72303523353877L177.633,101.89030169522414L177.65324999999999,103.25242397450974L177.687,103.58464449638632L178.13925,104.4161330948849L178.26074999999997,104.7479034131027L178.767,104.1778158887832L179.03025,103.23324845699123L179.037,104.44519263567933L179.62425,103.4608237974679L180.09675,104.74713034717163L180.18449999999999,105.13897389724426L180.38025,104.61985323434543L180.387,104.3548857242737L180.66375,104.74209844946651L180.82575,105.13640422099161L180.86625,106.21506411552787L181.00125000000003,107.035748669193L181.04175,106.95827969613637L181.1835,108.18330035195167L181.22400000000002,108.354752519694L181.629,108.53907874761047L182.02724999999998,101.56384041467484L182.24325,103.24160031630285L182.2905,103.3510194115696L182.85750000000002,104.68563624306935L183.73499999999999,100.688600013976L183.90375,103.84521233892288L183.9915,104.08129051946202L184.17374999999998,104.23545292932803L184.221,105.93181344114062L184.29525,105.2497958566197L184.32899999999998,106.39920892325276L184.38299999999998,106.97361885530277L184.47750000000002,106.31560878821273L184.66649999999998,106.53990919240422L185.13225,106.69346716367615L185.1525,106.3985569747998L185.43599999999998,69.35440398454587L185.67225000000002,76.34832123691338L185.922,84.06400824542449L186.53625,90.82778221613259L186.64425,94.65346814757424L187.3665,93.83701444605492L187.41375,99.65579605662528L187.49474999999998,102.88761335188732L187.8255,104.95722721561542L187.839,105.89514546827418L187.91325,104.47520409150306L187.92,104.92611493596013L187.95374999999999,105.40907967373153L188.5275,106.23842748247961L188.54774999999998,107.32375162009608L189.54,107.73261644016956L189.56699999999998,109.012117382225L189.57375,110.03215345251033L189.6885,108.5007642819568L189.78975,106.79429909454113L189.85725,108.90454038139342L189.9315,107.24517702282438L189.96525,107.2013293349909L189.999,109.65832925431208L190.02599999999998,109.88098290969842L190.0665,110.20755649778465L190.2285,110.90288999563208L190.296,108.89156002984441L190.4715,110.18962162789755L190.485,108.66286130310601L190.77525,109.03715949013913L190.9305,109.46944595917026L191.27474999999998,107.60100510823919L191.43675000000002,106.51999869031806L191.565,107.33818731465888L191.6595,108.08948387847623L191.88225,109.91914292444375L192.645,107.84615879869756L192.97575,108.73081184613666L193.38750000000002,107.34981065938015L193.5225,107.31390724693674L193.59675000000001,107.69394535978509L193.73175,107.09817700535525L194.13675,107.64225455980689L194.2245,109.49505408323522L194.47425,110.75034956329728L194.60925,110.37181725400704L194.68349999999998,111.40887540756475L195.26399999999998,110.55204537996754L195.3315,109.56762839576339L196.28325,110.35002980526365L196.533,111.51160605000194L196.5465,110.83078759351325L196.74224999999998,110.8431726974945L197.0055,111.2685902612302L197.3295,111.98223454662794L197.6535,110.73121619874507L197.667,110.7447703097067L197.72099999999998,110.42846424770256L197.9235,109.70627217797309L198.07874999999999,109.9219883151415L198.17325000000002,111.05817126871887L198.55800000000002,110.06579767793914L199.20600000000002,104.26339825848856L199.50975000000003,102.70250552863494L199.53675,101.09415289146077L199.94174999999998,102.3180809238857L200.25225,102.91995629837494L200.45475,104.58276312832085L200.60325,105.78858495523959L200.65725,106.82352268071322L201.0825,107.67005176819715L201.48075,109.17898364839277L201.68325,107.7734638277783L201.83175,108.17795978494685L202.0545,107.82436161235799L202.25025000000002,107.62879230702688L202.34475,109.16325001249122L202.554,109.54285874779846L202.81725,110.29287997320245L203.39775,109.82301877725367L203.8905,109.56146868503671L204.05925,110.54860169064045L204.147,109.85597660220833L204.19425,110.67167381310944L204.20775,111.42731082358651L204.74099999999999,111.04771387095106L205.13925,110.67128010590692L205.90875,110.79272501468552L206.01,111.34369067755547L206.361,111.84847435977203L206.54325,110.72956005978993L206.96175,111.27633359363543L207.1305,111.4839167213654L207.73125000000002,111.39789830001037L207.981,112.14671800021164L208.21725,112.16889711094018L208.32525,111.6733398711645L208.44,112.1529909341747L208.71675,111.96323069692394L209.35125000000002,111.79816285066613L209.44575,111.61966375449619L209.55374999999998,112.57900732827866L209.69549999999998,111.43270191214276L209.75625,112.21700244777837L209.86425000000003,113.00947112926995L210.2895,112.27410071220221L210.29625,111.95365845311146L210.39075,112.17270710827712L211.13325,114.08874111087748L211.221,113.98297067329446L211.29525,114.3136097486977L211.90275,113.85471524139864L211.97025,114.25706169537352L212.01074999999997,113.5054355084073L212.42249999999999,111.72918816810785L212.706,112.81964964458365L213.77249999999998,114.34326391582013L214.029,114.51370342905278L214.3395,114.44076747660448L214.353,115.42525813829396L214.62300000000002,113.9856075505595L214.62975,113.79685373664978L214.6365,113.91650976222857L214.7445,114.03701892565769L214.83225000000002,113.21548844564064L214.84575,112.60635423501466L215.514,112.63539750263989L216.45225000000002,112.58361783230569L216.52650000000003,112.71643404128712L216.9585,113.87096769353919L216.999,114.75695284613312L217.03949999999998,114.2234666545238L217.06650000000002,113.50775160241943L217.07325,113.12573024161134L217.5795,113.03825818072785L217.84949999999998,113.02418179310524L218.22074999999998,113.35391684931452L218.95649999999998,113.29478500657801L219.03074999999998,114.10827858995783L219.08474999999999,114.44678864764369L219.40875,113.9114395817622L219.57075,113.54533598881174L219.84074999999999,113.61369626450177L219.86100000000002,113.91778294823602L220.07025,114.37869136463644L220.13774999999998,114.93692393424372L220.185,114.77443980549947L220.3065,114.12241500135278L220.69125,114.94099464019655L220.82625000000002,115.06993748166654L220.8465,113.92145726442523L220.98825,114.49684567178491L221.56875000000002,115.74758142567615L222.183,114.92771709707995L222.1965,115.06745323930211L222.4125,115.1006985790807L222.53400000000002,113.85098788933352L222.68925000000002,114.00468886535836L224.44424999999998,115.62621963406488L224.61975,114.54323934220926L224.91675,114.15924546596149L225.288,114.23003715398319L225.7065,115.6392307841488L225.79425,116.39778853221802L226.41525,115.7420007361091L226.61100000000002,117.73800119326486L226.87425,117.56407958281349L227.313,114.72744100859785L228.76425,115.29703875524416L229.29749999999999,116.82783370753243L229.47299999999998,115.79151395285199L229.6215,114.60352104174265L229.74975,114.98167270635413L229.88475,116.48936749391302L229.9185,116.16919169090986L230.0265,116.36011302573615L230.1075,117.2775348647803L230.2155,117.96421364691078L230.39775,117.69544167584094L230.85675,117.39639995094052L231.1875,117.51262856264279L231.27525,116.80482283512734L231.32924999999997,118.51337461475882L231.363,119.64452093126985L231.58575,117.38436332513459L231.9705,117.6387117249669L232.4565,117.38542152194498L232.67925,116.08862237509354L232.7265,116.9528899627051L232.78725,116.85799610836037L233.12475,117.61919319328939L233.145,117.01026702830468L233.28675,117.01957004395507L233.36775,117.21075859308309L233.496,116.93039429894401L233.62425000000002,118.26849387983L234.54225,118.17998679978993L235.089,117.75274081530182L235.09574999999998,118.22323946439249L235.12275,118.91855984986547L235.32524999999998,118.61412963578266L235.4535,118.46371898564468L235.76399999999998,118.49944937480603L236.25,117.80940796612842L236.28375,116.01791212909362L236.45925,117.15426146414191L236.76975,117.12809452885357L236.87099999999998,117.55744313338325L237.17475000000002,116.95064935170964L237.4245,116.74772559724988L237.71475,116.9560831299425L237.84975,117.06467008927198L237.89025,117.00682968428247L237.97799999999998,116.43471312297237L238.167,117.20063143941564L238.437,116.93461320275655L238.45725000000002,117.63009381089455L238.72725,117.45373111948766L239.09175,117.99713006986238L239.17950000000002,117.16427990799798L239.34825,117.11597856557486L239.39550000000003,117.21336998909025L239.4225,118.24536348584695L240.09075,117.25992876683443L240.111,117.1882734419771L240.2595,117.44272209807173L240.381,117.39424627133027L240.597,117.92742083949716L241.0155,119.02954828485119L241.11,118.42135783173114L241.22475,118.42760881375843L241.23149999999998,119.306441418966L241.515,119.40564254192026L242.18325,119.5492705496564L242.3655,119.43921941365198L242.56125,119.53812406079301L242.97975,118.71750247574917L243.351,118.34672549262251L243.67499999999998,118.21061587758533L243.70875,117.71986219054158L244.43775000000002,118.3195005874323L244.512,118.0132459793598L245.34225,119.0770406459419L245.7405,116.89867951805553L245.99025,116.42679286094514L246.132,117.37915576209375L246.38175,117.55989232269593L246.62475,117.92305017855188L246.6315,118.1189713905132L246.80025,117.44390204997842L247.21875,118.28178207981144L247.25925,118.55813345583087L247.3605,118.44700215837622L247.698,118.99511845783425L247.80599999999998,120.7151061028981L247.8735,119.90219358443228L247.98825000000002,119.6299121608675L248.14350000000002,119.76520815835079L248.454,119.97001105698807L248.89275,119.57909171997498L248.94,119.22241752657504L248.994,119.35579726828517L249.318,118.51519307606178L249.37875,119.24918426830135L249.642,118.59959608389258L249.77700000000002,118.91964456536905L249.86475000000002,118.9803071846116L250.425,118.96757446811976L250.8435,117.78361079581771L250.9245,117.78569217831986L251.14724999999999,118.12088769101126L251.16074999999998,118.35997203027836L251.43075,118.19282484563479L251.8695,118.44259634756781L252.369,119.33907604574134L252.68625,119.8529455986612L252.92925,120.25288049306067L253.125,120.0927350429955L253.32075,120.21824815376722L253.4085,118.65374946786346L253.42875,117.54768628755873L253.87425,119.08522860986338L253.8945,118.4358018011428L254.18474999999998,119.11965475882373L254.448,118.57325790711863L254.5155,119.60599254601374L254.53575,119.4663100575127L254.8935,119.80552374494019L255.27824999999999,118.75844895346131" fill="none"></path></g></g></g></g><g opacity="0.2"><g><g><g><path style="fill: none;" stroke="rgb(255, 112, 67)" stroke-width="2px" d="M34.0335,75.25650360367517L34.053749999999994,74.46802507747304L34.22925,83.99979092858057L34.384499999999996,94.89689035849139L34.816500000000005,97.51240448518233L34.877250000000004,99.58553037860177L35.295750000000005,102.30576634407045L35.329499999999996,107.52720735289834L35.47125,103.65098985758696L35.59275,99.94537516073748L35.829,106.623672246933L35.8425,103.7853704257445L35.8965,106.45393750884317L36.591750000000005,105.62082138928501L36.855000000000004,107.36757587302816L36.9495,107.88293367082423L37.368,109.72605250098489L37.55025,106.13749092275447L37.658249999999995,108.17472251978789L37.7055,110.33793378960003L38.0295,111.78261290897024L38.11725,111.28753878853539L38.21175,110.53090843287383L38.279250000000005,108.17870595238426L38.5695,111.33217638189143L38.6235,112.97980801625685L38.954249999999995,108.72077107429506L39.04875,113.3823999491605L39.163500000000006,112.79121707786214L39.204,114.04166768897664L39.393,111.68004675344989L40.128750000000004,112.092539397153L40.304249999999996,115.27150186625394L40.533750000000005,112.95567593791269L40.594500000000004,115.81796998327428L40.92525,112.5784217227589L40.9455,113.48059686747466L41.202000000000005,112.7942215312611L41.714999999999996,115.45949480750346L42.26175,115.03491683439776L42.633,114.9267709797079L42.65325,112.01662269505589L42.747749999999996,115.43233416297221L42.774750000000004,113.17298038439318L43.098749999999995,116.3925150307742L43.146,116.54539010741496L43.375499999999995,116.09667041084984L43.443,118.94410133361816L43.6455,117.87001165476713L44.03025,120.06920402700251L44.226,118.80109803243118L44.334,117.17637354677373L44.442,120.58614362369886L44.82,116.51246650652453L45.16425,119.83263828537682L45.28575,119.88752863623881L45.3465,118.59107082540339L45.441,120.12550256469035L45.4545,121.50431278077039L45.47475,121.41776957295158L45.771750000000004,120.13666196302935L46.197,120.83703718402171L46.25775,121.37556254863739L46.3455,120.42088421908292L46.36575,120.30735639008608L46.41975,119.58616218783641L46.68975,121.01294479586863L46.804500000000004,119.5728229934519L46.89225,118.2804402438077L47.25675,121.32249512455681L47.493,122.84720941023394L47.76975,120.76637706973338L47.898,125.23453940044752L48.51225,123.11055481433868L48.59325,124.78279596025294L48.67425,123.43795825134626L48.80925,123.30171617594632L48.843,122.26161106066272L48.84975,123.16014035181567L48.98475,123.80648363720289L49.018499999999996,124.34816536578265L49.322250000000004,124.65617488731039L49.40325,122.81735536727038L49.639500000000005,123.9078537984328L49.875750000000004,117.15718941255051L49.8825,127.52900863235647L50.193000000000005,124.63224535638636L50.30775,124.84292843125084L50.321250000000006,125.42129294438797L50.355,124.07256584275854L50.52375000000001,125.38454023274508L50.5305,123.2939687371254L50.598000000000006,126.32121354341507L50.6115,124.17386848818174L50.64525,125.80459223552185L50.841,124.61480698802256L50.94225,125.49582557244736L50.982749999999996,125.58005877516487L51.873749999999994,125.72417367588392L52.245000000000005,129.048336121169L52.3395,127.09665187380531L52.57575,124.40705361691388L53.297999999999995,32.362467375668615L53.777249999999995,83.0099272186106L54.07425,92.78459082950246L54.256499999999996,96.18823625824669L54.27675,94.84532274983147L54.66824999999999,99.2651437629353L55.08675,99.45611704479565L55.323,100.14544378627431L55.552499999999995,102.52818752418865L55.647,106.57138125462966L55.6605,102.31911518357018L55.667249999999996,102.62419017878447L56.05875,104.88501483743842L56.754,109.26279279318724L57.03075,108.43831869688903L57.239999999999995,108.7311106378382L58.05,107.12253207510169L58.1715,107.00590334155343L58.185,112.84588559107348L58.5225,112.62036350640385L58.9005,111.17339849472047L59.00175,104.22465719959953L59.35275,110.09131783788855L59.494499999999995,112.193422480063L59.54175,112.32812615958129L59.832,110.59743079272185L60.264,114.09877641634509L60.452999999999996,115.28387172655627L60.641999999999996,116.36751971461558L60.992999999999995,115.42973480441356L61.411500000000004,116.09602418812838L61.48575,116.48347329009664L61.978500000000004,115.03549071875486L62.073,116.87225824052638L62.1135,117.78249187902972L62.28225,115.77047743580559L62.316,115.78323310071772L62.52525,116.04547413912687L62.802,117.77849397876048L62.88975,120.01299229535189L62.90325,117.60713403875178L63.449999999999996,115.32564954324204L64.071,117.92870218103582L64.18575,118.52947229688817L64.3275,121.1615229736675L64.989,121.30232718857852L65.232,122.00035864656621L65.259,121.79042065685445L65.313,121.8278244137764L65.8125,121.33426216515628L66.069,118.87938261032104L66.1635,-763.0133386091751L66.42,-3.4726658734408318L66.50099999999999,14.361335472627133L66.7845,47.40608865564522L67.2435,66.16142034530641L67.30425,74.66500726613133L67.3245,74.65827497568999L67.83749999999999,85.13323664665224L67.85100000000001,79.08165985887702L68.21549999999999,85.94593405723573L68.4045,88.42554851011796L69.11325000000001,97.59403591806239L69.72075,98.68749781088397L69.82875,102.91622497818688L69.92325,102.51379701224242L70.33500000000001,-19.59001996300438L70.4835,61.64299249649049L70.97625000000001,93.0294369025664L70.98975,94.51901403340428L71.20575,98.02170032804663L71.46225,99.5290919867429L71.982,101.60608557137577L72.08325,99.53394347971137L72.38025,98.75171498818831L72.954,104.97823969884352L73.06875,105.50256263126028L73.089,105.76733068986373L73.3185,106.15450008348986L73.33200000000001,105.83667906847869L73.37925,105.67710545929997L73.62225,102.3519760912115L73.764,101.45675507458775L73.926,105.25019336830486L74.00025000000001,107.2317919406024L74.1825,109.26906694065441L74.3175,108.09946168552746L75.06675,106.05603310194884L75.13425,109.94730662215841L75.47175,105.70957573977385L75.60000000000001,116.80722605098379L75.68775,106.98225834152916L75.72824999999999,109.43451924757525L75.816,113.20405212315647L76.20075,104.9177600036968L76.356,113.18547080863607L76.38974999999999,112.41210135546599L76.55175000000001,110.63270297917454L76.70025000000001,112.70815816792576L76.788,108.1516272913326L76.94999999999999,112.22189968282527L77.598,111.01540186188438L77.75999999999999,114.10075848752803L78.1245,110.2274393493479L78.19200000000001,112.2128477421674L78.32025,109.86355808648197L78.68475,53.067086501555025L78.948,31.260975924405187L78.96825,39.73810629411179L79.04925,59.2758111520247L79.2585,72.54079601981425L79.96050000000001,80.62495545907456L80.0145,74.90856571630998L80.11575,83.08975501493974L80.77050000000001,91.27768624912609L80.946,95.84388153119521L81.0945,97.24845626137474L81.71549999999999,99.21131919730794L81.76950000000001,99.43713063543494L82.04625,101.68173221024601L82.458,-62.98414577137339L82.66725,-18.84452971545133L83.09925000000001,54.06723672693427L83.22075000000001,66.38243816115641L83.28825,72.93960224498403L83.295,77.46730869466609L83.42325,78.29075076363306L83.57849999999999,-0.02486510710284051L83.70675,46.70270898125389L84.03750000000001,71.14650780504401L84.105,81.32811329581521L84.12525,78.28558098186147L84.2265,88.65050635554574L84.44925,91.72250931913204L85.11075,96.62137427113274L85.347,96.96656330065295L85.63725,-201.902624910528L85.67775,-64.88000891425392L86.13,52.3335658420216L86.319,72.25206949494104L86.3865,32.59943821213463L86.62275000000001,83.59404022043402L87.075,88.07580216364427L87.291,90.71072708476675L87.68925,91.55225374481896L87.9255,98.98047300902282L87.99975,98.20769673044032L88.08075,93.32981954921377L88.1955,97.93140758167614L88.965,103.92988801002504L89.20124999999999,100.57970545508645L89.24175000000001,100.59141944755208L89.7075,100.33774809403853L90.0045,105.45168947089803L90.20025,101.36894112283534L90.234,105.4158578677611L90.29475,106.05563282966615L90.90225,106.90706020051783L90.9225,-170.34874612634832L91.1115,-36.724374294281006L91.179,30.356022986498743L91.5705,79.66701225800949L91.80675000000001,89.36799683354118L92.0295,68.47887147556652L92.03625,73.44331838867883L92.44125,91.14991740746932L93.27825,96.11020727591082L93.2985,100.59755856340583L93.67649999999999,103.11552681706169L93.852,104.84940989450976L93.87225000000001,100.74912190437318L94.014,103.25525077906524L94.06125,103.64089624448256L94.2165,104.16565802964298L94.33125,105.70552961392836L94.45275,104.15617688135669L94.49324999999999,101.80810251019219L94.87125,107.95668986710636L94.92525,105.45500739054248L96.02550000000001,106.5711353041909L96.07275,104.69314938241786L96.255,106.33204736492851L96.633,52.84483411095361L96.849,-102.27394710887563L96.99075,36.48249409415507L97.281,67.94305638833481L97.30125,66.07084306803618L97.43625,70.23661656813188L97.48349999999999,80.85433558984238L97.659,82.08756002512847L98.1315,73.576054464687L98.19225,77.8276405551217L98.2395,78.21157401258296L98.32725,89.74053458733992L98.47575,88.59389917417008L98.73225,90.44708268208937L98.93475,94.84863102436067L99.09,94.4095275076953L99.2115,96.3039679960771L99.684,96.42362047325481L100.17,75.8267903327942L100.19024999999999,79.09629149870439L100.46025,94.73605806177314L100.62225,99.73718052560633L101.061,103.56193168596789L101.58749999999999,104.56120902841742L101.62125,104.34611331332815L101.64150000000001,105.1566598632119L101.817,102.030822688883L102.11399999999999,102.72308636795391L102.384,105.29876616868107L102.49875,106.80199113759129L102.97800000000001,106.06836438179018L103.113,104.3176168203354L103.16025,98.0226889523593L103.923,107.70289794965224L103.94325,106.06500788168475L104.08500000000001,106.96079796010798L104.48325,106.9938903505152L104.55075,112.67388425090097L104.57775,108.42613209377636L104.7735,106.26771444624121L104.99625,-511.32559949701465L105.34725,11.896169402382583L105.462,36.73979683355853L105.5565,56.504480188543155L105.66449999999999,-20.61087825081566L105.77924999999999,27.835108150135397L106.04925,65.06755818020214L106.35975,81.54287143187089L106.3665,77.18338543718512L106.515,82.28685221888803L106.56225,84.1510311581872L106.75125,87.58131157268178L106.81875,85.4818304018541L106.92675,86.96257742968474L106.9875,88.35991350087254L107.08200000000001,87.24099814891817L107.33850000000001,60.49979556690563L107.35875,63.78951289437036L107.58825,86.71326084570451L107.61525,84.11943376064302L107.7705,77.04570141705601L107.81099999999999,81.07904748483139L107.8245,78.7346671928059L108.0945,86.72359076413242L108.135,86.03108595718038L108.22274999999999,91.07021017508075L108.25649999999999,85.3976478359916L108.6885,94.7040652145039L108.81675,-66.46607095544991L108.8775,20.234930948777645L109.18124999999999,73.01499811085789L109.33649999999999,80.15709985386242L109.35000000000001,83.96016879515214L109.35675,81.84335535222834L109.755,93.5991015217521L109.836,95.64710188995709L110.82825,91.13596092570913L111.18599999999999,91.88362614675002L111.321,98.42544967477973L111.53025000000001,95.78011285174978L111.591,97.62434087016366L111.70575000000001,96.45238220691682L111.82050000000001,98.07409259406005L112.02974999999999,102.81875626607375L112.37400000000001,82.89877208796416L112.52925,91.07645056464456L112.62375,87.29550751772796L113.12325,79.10763415423308L113.89275,93.4159841862592L114.54075,97.10020119493659L114.5745,96.137228066271L114.66900000000001,100.58363583954899L114.77024999999999,100.89476314457981L114.81750000000001,98.60983534292743L115.02674999999999,100.91101034121081L115.6815,100.31907032836568L115.857,105.24965324185112L115.884,102.60473598133434L115.99199999999999,103.51927616379479L116.2755,106.75655299966986L116.70750000000001,103.75146302309905L116.72775,105.54645755074242L116.83575,102.55122488195246L117.48375,-34.933720068498104L117.693,62.24750973961572L117.8415,78.76238725402139L118.48275000000001,77.62725364078176L118.96875,91.46074089136992L119.27924999999999,89.57832303914158L119.46825,96.47975986654109L119.8665,100.35565907304938L119.9745,100.71746663613753L120.18375,103.57656332579528L120.66975000000001,103.1655656749552L120.798,97.87050832401623L121.08825,83.52710794318807L121.22325000000001,94.55884353681044L121.61475,96.03184071454136L121.72949999999999,93.03708547895606L121.91175,95.62508209185168L122.0535,99.80565119873394L122.13449999999999,100.2124676921151L122.23575,103.10337879441002L122.26275,100.74190253561194L122.3775,92.91242236440833L122.62049999999999,99.69479988921773L122.8905,101.55805772001094L123.11325000000001,101.98405834761535L123.61274999999999,99.47108626365663L123.85575,-433.82370341907847L124.21350000000001,53.908439549532815L124.2405,50.00492637807673L124.3755,71.10133973034947L124.70625,84.71705474636774L124.902,88.6098377271132L125.1855,91.24696173451164L125.52974999999999,96.81549668312074L125.631,-154.73291873931885L125.685,-12.64569130810824L125.7255,19.46434411135587L126.08324999999999,79.42362741990524L126.10350000000001,78.28078735958447L126.3735,82.9046363180334L126.54225,-96.60665100271052L126.738,41.44044984470716L126.9675,75.9320378303528L127.20375,82.6979125629772L127.35900000000001,87.95488617636941L127.467,87.57279975847764L127.82475,91.41152669082989L127.95975,94.46929828687148L127.97999999999999,90.71636947718535L128.0475,-82.53483295440674L128.088,-69.58317930048159L128.2365,35.82165902311152L128.79,39.69151074236092L129.74175,84.79872958226639L130.18725,90.89291848919609L130.19400000000002,89.89379064603285L130.2345,95.89877670461482L130.29524999999998,94.18616592884065L130.41,93.35690303282306L130.491,93.55402025309478L130.5315,91.80881381034852L130.92975,88.82356383583765L131.26725000000002,98.54231471365149L131.5845,93.98792987520046L131.82750000000001,98.73836614868858L131.9895,101.412522576072L132.00975,97.56408783522521L132.516,84.73283897746694L132.5565,84.24973444505173L132.75900000000001,88.40262689373712L132.81975,85.0995703718879L132.84675,90.47383823178032L132.88725,93.38462791659616L133.28549999999998,76.52071779424494L133.50825,90.46741940758446L133.515,86.64210400798105L133.569,94.74560190330853L133.596,92.68931155855007L133.71075000000002,88.14926418391143L134.14275,95.57139255783775L134.27100000000002,94.71069140867755L134.49375,98.1536455046047L134.5005,95.92681987719104L134.6625,101.2906420772726L135.18224999999998,99.04127581553027L135.6075,99.7748639908704L135.91799999999998,101.35071667757903L136.21499999999997,104.68291591514242L136.34324999999998,96.86383317817342L136.7955,105.88162048296496L137.187,17.41644501686099L137.34225,26.664451577446698L137.889,64.21447667208587L138.078,34.859086166728645L138.19275,51.32208260622893L138.20624999999998,51.09407208182597L138.42225,69.60885459726508L138.6315,81.49713429537688L139.02974999999998,88.61246602101761L139.99499999999998,91.78147955374286L140.157,86.49795776063746L140.21775000000002,95.46959318897942L140.25825,94.5387238264084L140.56875,95.19898501309483L140.58900000000003,94.00037207386711L140.71725,96.6199033910578L140.8455,94.90338152105159L141.60825,88.09827528216623L141.70275,92.52668044783853L142.128,95.57562676343052L142.39125,96.57619172876532L142.53300000000002,99.19748810204594L143.01899999999998,97.74089726534758L143.0865,97.65223454345357L143.11350000000002,102.49593908136542L143.43075,100.31788397919048L143.91674999999998,96.77094107324427L144.06525,98.93225707791069L144.18,101.20484877716412L144.4905,102.37967686219649L144.72,102.84139335155488L145.15875,99.84920371662487L145.52325,103.17219669168647L145.69875000000002,103.30811083316804L145.7325,102.86798011172903L146.21175,101.34947245771235L146.45475000000002,104.78085723790257L146.78549999999998,98.76274417747152L147.204,104.3337386304682L147.21075,104.42703100768004L147.37949999999998,103.15896359356968L147.44025,104.71707891334188L147.53475,106.1976089260795L147.81825,100.86178649555553L148.94549999999998,0.6783313100988266L149.15475,71.21956955302846L149.38424999999998,-43.67188583720815L149.53949999999998,44.623540423133164L149.796,79.50881307775325L149.86350000000002,79.43595387718896L150.11325,80.84505698897622L150.16725,83.9071737094359L150.33599999999998,91.25948109410027L150.4575,89.08065920526333L150.471,87.73429274559022L150.62625,86.87544345855714L150.63299999999998,92.419450879097L150.63975,90.57974641973324L150.66000000000003,96.5256850827824L150.78825,96.58464567227797L151.02450000000002,92.83150467005645L151.13925,95.24190577593718L151.23375,95.43963546102698L151.3755,97.50812205401336L151.497,99.26224540580404L151.5645,99.63271428238262L152.16525000000001,95.85066686977041L152.25975,96.29784334789623L152.30025,94.18102025985719L152.39475,100.3276448358189L152.4555,99.53143574974754L152.50275,98.48528796976264L152.5095,100.34228129820391L152.70525,96.37289198962127L152.77275,100.02742615613072L152.90775,100.16348015178335L153.3735,81.06847643852235L153.70425,92.81466912139547L153.711,95.26232448491184L153.92700000000002,93.83985324339434L154.18349999999998,93.7480028109117L154.93275,92.37472165714611L154.99349999999998,100.11819151314823L155.10150000000002,96.92041624676098L155.12175,103.43653072010387L155.1825,98.27529452063821L155.3715,101.72518827698448L155.60774999999998,-362.7195280248468L156.2355,-125.07407361810857L156.6945,51.295597119764864L156.843,63.04543083364314L157.032,69.68281334096736L157.3965,77.89553252133457L157.6935,85.76547395099294L158.29425,94.94949481704019L158.30100000000002,93.82358675653286L158.88825,96.9863020290028L158.94224999999997,91.72148693691601L159.246,97.51437691125004L160.06275000000002,30.81238161433828L160.10999999999999,43.24886072765699L160.30575,73.63640395077793L160.5555,78.38226361708207L160.95375,92.33314638788052L161.27775,27.980411811308443L161.54775,78.98020289160989L161.7165,91.54533819718795L161.84475,87.57078875194897L161.8785,92.37786114215852L162.03375,93.3585041219538L162.18224999999998,95.40498538450763L162.32399999999998,70.53306883031672L162.783,92.86736038598148L163.14075,93.12349606644024L163.53224999999998,98.38369114832446L163.82924999999997,95.10804122144526L163.85625000000002,99.49382944540545L164.025,93.81023791703312L165.27375,101.99032284996727L165.375,102.31719580563633L165.39525,100.17206912690943L165.54375000000002,99.2169760573994L165.58425,98.8385692509738L165.90825,104.51989899982107L166.0095,104.16094156828795L166.2795,96.29278930750762L166.32,101.32568760351703L166.41449999999998,97.1748254515908L166.48874999999998,100.37581736391242L166.5495,102.01823099093005L166.85999999999999,100.07910468361595L166.90725,100.49685873768547L166.93425,100.19135935740039L166.97475,103.41011274944653L167.373,102.51288072629409L167.55525,102.26744147864257L167.7105,103.82932803847574L168.183,103.51108746095137L168.33149999999998,106.41999634829436L168.55425,103.39326273311269L168.669,35.98846164616671L168.71625,57.780847224322244L168.98624999999998,74.02429190548985L169.07399999999998,80.63036636872727L169.10775,80.8325376293876L169.14825,85.46779193661432L169.16850000000002,88.86481599374252L169.6815,98.5715876384215L169.68825,96.2903056903319L169.70175,93.35277492349799L169.98525,98.09596289287914L170.0055,96.26315951347352L170.21475,97.28319314393131L170.397,94.5724913748828L170.41725000000002,99.82629174535926L170.451,102.83914121714507L170.829,102.07793425429952L170.93025,97.15699163350193L170.99099999999999,99.07674572684549L171.00449999999998,100.03907263278963L171.26775,98.63014795563438L171.33525,101.12636165185408L171.42974999999998,104.34789283709094L171.72,106.85479332100262L172.02375,94.96105931021951L172.3005,86.81062346154994L172.38825,92.73773485963996L172.39499999999998,88.64208134737883L172.53,92.68207772211596L172.5435,97.82279393889688L172.57725000000002,93.71859967708589L172.6515,99.00239635597576L173.394,94.78565806692298L173.40075000000002,101.3788177208467L173.54250000000002,102.57423330437054L174.0015,100.77480684627187L174.00825,100.81779512492095L174.02849999999998,102.89325031367217L174.03525,101.6303141008724L174.2985,104.88083850253713L174.35925,104.55477573654869L174.52125,57.836017283526346L174.744,93.32125468687579L174.91275,98.45376773314044L175.15575,102.98185034231707L175.41225,99.52700381929225L175.68225,100.3851249001243L175.73624999999998,101.86136283657768L175.95225,99.93401321497832L176.04000000000002,105.47675230286339L176.47199999999998,98.3931626514955L176.91074999999998,104.22593035481194L177.066,101.166220090606L177.633,102.14120138775219L177.65324999999999,105.29560739343817L177.687,104.08297527920116L178.13925,105.66336599263279L178.26074999999997,105.24555889042942L178.767,103.32268460230395L179.03025,101.8163973093033L179.037,106.2631089037115L179.62425,101.98427054015075L180.09675,106.67659017172728L180.18449999999999,105.72673922235316L180.38025,103.84117223999718L180.387,103.9574344591661L180.66375,105.32291753725573L180.82575,105.72786287827925L180.86625,107.83305395733227L181.00125000000003,108.26677549969067L181.04175,106.84207623655146L181.1835,110.02083133567464L181.22400000000002,108.61193077130751L181.629,108.81556808948518L182.02724999999998,91.10098291527142L182.24325,105.75824016874488L182.2905,103.51514805446972L182.85750000000002,106.687561490319L183.73499999999999,94.69304567033595L183.90375,108.5801308263432L183.9915,104.43540779027073L184.17374999999998,104.46669654412703L184.221,108.47635420885955L184.29525,104.2267694798383L184.32899999999998,108.12332852320239L184.38299999999998,107.83523375337775L184.47750000000002,105.3285936875777L184.66649999999998,106.8763597986915L185.13225,106.92380412058398L185.1525,105.95619169148533L185.43599999999998,13.78817449916491L185.67225000000002,86.83919711546464L185.922,95.63753875819121L186.53625,100.97344317219475L186.64425,100.3919970447367L187.3665,92.61233389377595L187.41375,108.38396847248079L187.49474999999998,107.73533929478039L187.8255,108.0616480112076L187.839,107.30202284726231L187.91325,102.34529202634639L187.92,105.60248120264575L187.95374999999999,106.13352678038858L188.5275,107.48244919560173L188.54774999999998,108.95173782652076L189.54,108.34591367027977L189.56699999999998,110.93136879530822L189.57375,111.56220755793832L189.6885,106.20368052612652L189.78975,104.23460131341761L189.85725,112.06990231167187L189.9315,104.75613198497079L189.96525,107.1355578032407L189.999,113.34382913329385L190.02599999999998,110.21496339277789L190.0665,110.69741687991403L190.2285,111.94589024240321L190.296,105.8745650811629L190.4715,112.13671402497725L190.485,106.37272081591867L190.77525,109.59860677068885L190.9305,110.11787566271697L191.27474999999998,104.7983438318426L191.43675000000002,104.89848906343634L191.565,108.56547025117008L191.6595,109.21642872420226L191.88225,112.66363149339503L192.645,104.7366826100783L192.97575,110.05779141729529L193.38750000000002,105.27830887924542L193.5225,107.26005212827162L193.59675000000001,108.2640025290576L193.73175,106.2045244737105L194.13675,108.45837089148436L194.2245,112.2742533683777L194.47425,112.6332927833904L194.60925,109.80401879007167L194.68349999999998,112.96446263790132L195.26399999999998,109.26680033857173L195.3315,108.09100291945718L196.28325,111.52363191951406L196.533,113.25397041710941L196.5465,109.8095599087802L196.74224999999998,110.86175035346639L197.0055,111.90671660683373L197.3295,113.05270097472452L197.6535,108.85468867692082L197.667,110.76510147614913L197.72099999999998,109.95400515469639L197.9235,108.62298407337883L198.07874999999999,110.24556252089415L198.17325000000002,112.76244569908489L198.55800000000002,108.57723729176955L199.20600000000002,95.5597991293127L199.50975000000003,100.36116643385455L199.53675,98.68162393569948L199.94174999999998,104.15397297252309L200.25225,103.82276936010882L200.45475,107.0769733732397L200.60325,107.59731769561769L200.65725,108.37592926892368L201.0825,108.93984539942309L201.48075,111.44238146868621L201.68325,105.66518409685656L201.83175,108.78470372069967L202.0545,107.29396435347472L202.25025000000002,107.33543834903024L202.34475,111.46493657068774L202.554,110.11227185075934L202.81725,111.41791181130843L203.39775,109.11822698333047L203.8905,109.16914354671133L204.05925,112.02930119904606L204.147,108.81703896956012L204.19425,111.89521962946112L204.20775,112.56076633930208L204.74099999999999,110.47831844199789L205.13925,110.10662945834075L205.90875,110.97489237785341L206.01,112.17013917186044L206.361,112.60564988309687L206.54325,109.05118860981682L206.96175,112.09649389440364L207.1305,111.79529141296041L207.73125000000002,111.26887066797778L207.981,113.26994755051354L208.21725,112.20216577703303L208.32525,110.93000401150097L208.44,112.87246752869L208.71675,111.67859034104781L209.35125000000002,111.55056108127941L209.44575,111.3519151102413L209.55374999999998,114.01802268895236L209.69549999999998,109.71324378793891L209.75625,113.3934532512318L209.86425000000003,114.19817415150729L210.2895,111.17104508660057L210.29625,111.47299506447533L210.39075,112.50128009102562L211.13325,116.96279211477801L211.221,113.82431501691993L211.29525,114.80956836180255L211.90275,113.16637348045003L211.97025,114.86058137633586L212.01074999999997,112.377996227958L212.42249999999999,109.06481715765868L212.706,114.45534185929733L213.77249999999998,116.62868532267484L214.029,114.7693626989018L214.3395,114.33136354793203L214.353,116.90199413082817L214.62300000000002,111.82613166895781L214.62975,113.51372301578523L214.6365,114.09599380059677L214.7445,114.21778267080134L214.83225000000002,111.98319272561507L214.84575,111.69265291907571L215.514,112.67896240407771L216.45225000000002,112.50594832680443L216.52650000000003,112.91565835475923L216.9585,115.60276817191732L216.999,116.08593057502401L217.03949999999998,113.42323736710982L217.06650000000002,112.43417902426287L217.07325,112.55269820039923L217.5795,112.90705008940265L217.84949999999998,113.00306721167132L218.22074999999998,113.84851943362844L218.95649999999998,113.20608724247326L219.03074999999998,115.32851896502757L219.08474999999999,114.95455373417249L219.40875,113.10841598293999L219.57075,112.99618059938605L219.84074999999999,113.7162366780368L219.86100000000002,114.37391297383743L220.07025,115.07005398923701L220.13774999999998,115.77427278865468L220.185,114.53071361238307L220.3065,113.14437779513274L220.69125,116.1688640984622L220.82625000000002,115.26335174387151L220.8465,112.19873693856327L220.98825,115.35992828282443L221.56875000000002,117.62368505651301L222.183,113.69792060418563L222.1965,115.27705745263535L222.4125,115.1505665887486L222.53400000000002,111.97642185471275L222.68925000000002,114.23524032939565L224.44424999999998,118.05851578712463L224.61975,112.91876890442589L224.91675,113.58325465158984L225.288,114.33622468601575L225.7065,117.75302122939718L225.79425,117.53562515432185L226.41525,114.75831904194573L226.61100000000002,120.73200187899852L226.87425,117.30319716713646L227.313,110.47248314727437L228.76425,116.15143537521362L229.29749999999999,119.12402613596484L229.47299999999998,114.2370343208313L229.6215,112.82153167507866L229.74975,115.54890020327136L229.88475,118.75090967525136L229.9185,115.68892798640513L230.0265,116.64649502797562L230.1075,118.65366762334651L230.2155,118.9942318201065L230.39775,117.2922837192362L230.85675,116.94783736358991L231.1875,117.68697148019618L231.27525,115.7431142438542L231.32924999999997,121.07620228420606L231.363,121.34124040603638L231.58575,113.99412691593172L231.9705,118.02023432471537L232.4565,117.00548621741208L232.67925,114.14342365481639L232.7265,118.24929134412247L232.78725,116.71565532684326L233.12475,118.76098882068288L233.145,116.09687778082761L233.28675,117.03352456743067L233.36775,117.4975414167751L233.496,116.5098478577354L233.62425000000002,120.27564325115898L234.54225,118.04722617972982L235.089,117.11187183856964L235.09574999999998,118.92898743802851L235.12275,119.96154042807493L235.32524999999998,118.15748431465843L235.4535,118.23810301043773L235.76399999999998,118.55304495854813L236.25,116.77434585311198L236.28375,113.3306683735414L236.45925,118.85878546671435L236.76975,117.08884412592107L236.87099999999998,118.20146604017779L237.17475000000002,116.04045867919922L237.4245,116.44333996556023L237.71475,117.26861942898145L237.84975,117.22755052826622L237.89025,116.9200690767982L237.97799999999998,115.57653828100726L238.167,118.34950891408053L238.437,116.53558584776792L238.45725000000002,118.67331472310153L238.72725,117.18918708237734L239.09175,118.81222849542445L239.17950000000002,115.91500466520137L239.34825,117.04352655194023L239.39550000000003,117.3594571243633L239.4225,119.793353730982L240.09075,115.78177668831566L240.111,117.08079045469111L240.2595,117.82439508221367L240.381,117.32153253121811L240.597,118.72718269174749L241.0155,120.68273945288226L241.11,117.50907215205106L241.22475,118.43698528679934L241.23149999999998,120.62469032677737L241.515,119.55444422635165L242.18325,119.76471256126058L242.3655,119.27414270964536L242.56125,119.68648103150454L242.97975,117.48657009818339L243.351,117.79056001793256L243.67499999999998,118.00645145502958L243.70875,116.98373165997592L244.43775000000002,119.2189581827684L244.512,117.55386406725103L245.34225,120.67273264581507L245.7405,113.63113782622598L245.99025,115.71896287527952L246.132,118.80770011381671L246.38175,117.83099716359919L246.62475,118.46778696233577L246.6315,118.41285320845518L246.80025,116.43129803917626L247.21875,119.53860212456098L247.25925,118.97266051986003L247.3605,118.28030521219426L247.698,119.81729290702128L247.80599999999998,123.29508757049388L247.8735,118.68282480673358L247.98825000000002,119.22149002552032L248.14350000000002,119.9681521545757L248.454,120.277215404944L248.89275,118.99271271445537L248.94,118.68740623647517L248.994,119.55586688085037L249.318,117.25428678772667L249.37875,120.35017105666074L249.642,117.62521380727941L249.77700000000002,119.3997172875838L249.86475000000002,119.07130111347547L250.425,118.94847539338198L250.8435,116.00766528736463L250.9245,117.78881425207311L251.14724999999999,118.62368096004835L251.16074999999998,118.71859853917903L251.43075,117.94210406866941L251.8695,118.81725360046735L252.369,120.68379559300163L252.68625,120.62374992804095L252.92925,120.85278283465993L253.125,119.85251686789775L253.32075,120.4065178199248L253.4085,116.30700143900785L253.42875,115.88859151710164L253.87425,121.39154209332034L253.8945,117.46166158806196L254.18474999999998,120.1454341953451L254.448,117.753662629561L254.5155,121.15509450435638L254.53575,119.25678632476115L254.8935,120.31434427608144L255.27824999999999,117.18783676624298" fill="none"></path></g></g></g></g></g></g><g transform="translate(60, 178)" clip-path="url(#clip_1)"><clipPath id="clip_1"><rect width="270" height="21"></rect></clipPath><g><g><line x1="0" y1="0" x2="0" y2="5" style="visibility: inherit;" fill="rgb(0, 0, 0)" stroke="rgb(204, 204, 204)" stroke-width="1px"></line><line x1="33.75" y1="0" x2="33.75" y2="5" style="visibility: inherit;" fill="rgb(0, 0, 0)" stroke="rgb(204, 204, 204)" stroke-width="1px"></line><line x1="67.5" y1="0" x2="67.5" y2="5" style="visibility: inherit;" fill="rgb(0, 0, 0)" stroke="rgb(204, 204, 204)" stroke-width="1px"></line><line x1="101.25" y1="0" x2="101.25" y2="5" style="visibility: inherit;" fill="rgb(0, 0, 0)" stroke="rgb(204, 204, 204)" stroke-width="1px"></line><line x1="135" y1="0" x2="135" y2="5" style="visibility: inherit;" fill="rgb(0, 0, 0)" stroke="rgb(204, 204, 204)" stroke-width="1px"></line><line x1="168.75" y1="0" x2="168.75" y2="5" style="visibility: inherit;" fill="rgb(0, 0, 0)" stroke="rgb(204, 204, 204)" stroke-width="1px"></line><line x1="202.5" y1="0" x2="202.5" y2="5" style="visibility: inherit;" fill="rgb(0, 0, 0)" stroke="rgb(204, 204, 204)" stroke-width="1px"></line><line x1="236.25" y1="0" x2="236.25" y2="5" style="visibility: inherit;" fill="rgb(0, 0, 0)" stroke="rgb(204, 204, 204)" stroke-width="1px"></line><line x1="270" y1="0" x2="270" y2="5" style="visibility: inherit;" fill="rgb(0, 0, 0)" stroke="rgb(204, 204, 204)" stroke-width="1px"></line></g><g transform="translate(0, 8)"><text x="0" y="0" dx="0em" dy="0.95em" style="text-anchor: middle; visibility: hidden; font-family: &quot;Helvetica Neue&quot;, sans-serif; font-size: 12px; font-weight: 200;" fill="rgb(50, 49, 63)" stroke="none" stroke-width="1px">-5k</text><text x="33.75" y="0" dx="0em" dy="0.95em" style="text-anchor: middle; visibility: inherit; font-family: &quot;Helvetica Neue&quot;, sans-serif; font-size: 12px; font-weight: 200;" fill="rgb(50, 49, 63)" stroke="none" stroke-width="1px">0</text><text x="67.5" y="0" dx="0em" dy="0.95em" style="text-anchor: middle; visibility: inherit; font-family: &quot;Helvetica Neue&quot;, sans-serif; font-size: 12px; font-weight: 200;" fill="rgb(50, 49, 63)" stroke="none" stroke-width="1px">5k</text><text x="101.25" y="0" dx="0em" dy="0.95em" style="text-anchor: middle; visibility: inherit; font-family: &quot;Helvetica Neue&quot;, sans-serif; font-size: 12px; font-weight: 200;" fill="rgb(50, 49, 63)" stroke="none" stroke-width="1px">10k</text><text x="135" y="0" dx="0em" dy="0.95em" style="text-anchor: middle; visibility: inherit; font-family: &quot;Helvetica Neue&quot;, sans-serif; font-size: 12px; font-weight: 200;" fill="rgb(50, 49, 63)" stroke="none" stroke-width="1px">15k</text><text x="168.75" y="0" dx="0em" dy="0.95em" style="text-anchor: middle; visibility: inherit; font-family: &quot;Helvetica Neue&quot;, sans-serif; font-size: 12px; font-weight: 200;" fill="rgb(50, 49, 63)" stroke="none" stroke-width="1px">20k</text><text x="202.5" y="0" dx="0em" dy="0.95em" style="text-anchor: middle; visibility: inherit; font-family: &quot;Helvetica Neue&quot;, sans-serif; font-size: 12px; font-weight: 200;" fill="rgb(50, 49, 63)" stroke="none" stroke-width="1px">25k</text><text x="236.25" y="0" dx="0em" dy="0.95em" style="text-anchor: middle; visibility: inherit; font-family: &quot;Helvetica Neue&quot;, sans-serif; font-size: 12px; font-weight: 200;" fill="rgb(50, 49, 63)" stroke="none" stroke-width="1px">30k</text><text x="270" y="0" dx="0em" dy="0.95em" style="text-anchor: middle; visibility: hidden; font-family: &quot;Helvetica Neue&quot;, sans-serif; font-size: 12px; font-weight: 200;" fill="rgb(50, 49, 63)" stroke="none" stroke-width="1px">35k</text></g><line x1="0" y1="0" x2="270" y2="0" fill="rgb(0, 0, 0)" stroke="rgb(204, 204, 204)" stroke-width="1px"></line></g></g></g></g></svg>