<svg viewBox="0 0 330 200" xmlns="http://www.w3.org/2000/svg"><g><g><g><g><g><line x1="60" y1="178" x2="55" y2="178" style="visibility: inherit;" fill="rgb(0, 0, 0)" stroke="rgb(204, 204, 204)" stroke-width="1px"></line><line x1="60" y1="158.22222222222223" x2="55" y2="158.22222222222223" style="visibility: inherit;" fill="rgb(0, 0, 0)" stroke="rgb(204, 204, 204)" stroke-width="1px"></line><line x1="60" y1="138.44444444444446" x2="55" y2="138.44444444444446" style="visibility: inherit;" fill="rgb(0, 0, 0)" stroke="rgb(204, 204, 204)" stroke-width="1px"></line><line x1="60" y1="118.66666666666667" x2="55" y2="118.66666666666667" style="visibility: inherit;" fill="rgb(0, 0, 0)" stroke="rgb(204, 204, 204)" stroke-width="1px"></line><line x1="60" y1="98.88888888888889" x2="55" y2="98.88888888888889" style="visibility: inherit;" fill="rgb(0, 0, 0)" stroke="rgb(204, 204, 204)" stroke-width="1px"></line><line x1="60" y1="79.1111111111111" x2="55" y2="79.1111111111111" style="visibility: inherit;" fill="rgb(0, 0, 0)" stroke="rgb(204, 204, 204)" stroke-width="1px"></line><line x1="60" y1="59.333333333333314" x2="55" y2="59.333333333333314" style="visibility: inherit;" fill="rgb(0, 0, 0)" stroke="rgb(204, 204, 204)" stroke-width="1px"></line><line x1="60" y1="39.55555555555557" x2="55" y2="39.55555555555557" style="visibility: inherit;" fill="rgb(0, 0, 0)" stroke="rgb(204, 204, 204)" stroke-width="1px"></line><line x1="60" y1="19.77777777777777" x2="55" y2="19.77777777777777" style="visibility: inherit;" fill="rgb(0, 0, 0)" stroke="rgb(204, 204, 204)" stroke-width="1px"></line><line x1="60" y1="0" x2="55" y2="0" style="visibility: inherit;" fill="rgb(0, 0, 0)" stroke="rgb(204, 204, 204)" stroke-width="1px"></line></g><g transform="translate(50, 0)"><text x="0" y="178" dx="0em" dy="0.3em" style="text-anchor: end; visibility: hidden; font-family: &quot;Helvetica Neue&quot;, sans-serif; font-size: 12px; font-weight: 200;" fill="rgb(50, 49, 63)" stroke="none" stroke-width="1px">-0.01</text><text x="0" y="158.22222222222223" dx="0em" dy="0.3em" style="text-anchor: end; visibility: inherit; font-family: &quot;Helvetica Neue&quot;, sans-serif; font-size: 12px; font-weight: 200;" fill="rgb(50, 49, 63)" stroke="none" stroke-width="1px">0</text><text x="0" y="138.44444444444446" dx="0em" dy="0.3em" style="text-anchor: end; visibility: hidden; font-family: &quot;Helvetica Neue&quot;, sans-serif; font-size: 12px; font-weight: 200;" fill="rgb(50, 49, 63)" stroke="none" stroke-width="1px">0.01</text><text x="0" y="118.66666666666667" dx="0em" dy="0.3em" style="text-anchor: end; visibility: inherit; font-family: &quot;Helvetica Neue&quot;, sans-serif; font-size: 12px; font-weight: 200;" fill="rgb(50, 49, 63)" stroke="none" stroke-width="1px">0.02</text><text x="0" y="98.88888888888889" dx="0em" dy="0.3em" style="text-anchor: end; visibility: hidden; font-family: &quot;Helvetica Neue&quot;, sans-serif; font-size: 12px; font-weight: 200;" fill="rgb(50, 49, 63)" stroke="none" stroke-width="1px">0.03</text><text x="0" y="79.1111111111111" dx="0em" dy="0.3em" style="text-anchor: end; visibility: inherit; font-family: &quot;Helvetica Neue&quot;, sans-serif; font-size: 12px; font-weight: 200;" fill="rgb(50, 49, 63)" stroke="none" stroke-width="1px">0.04</text><text x="0" y="59.333333333333314" dx="0em" dy="0.3em" style="text-anchor: end; visibility: hidden; font-family: &quot;Helvetica Neue&quot;, sans-serif; font-size: 12px; font-weight: 200;" fill="rgb(50, 49, 63)" stroke="none" stroke-width="1px">0.05</text><text x="0" y="39.55555555555557" dx="0em" dy="0.3em" style="text-anchor: end; visibility: inherit; font-family: &quot;Helvetica Neue&quot;, sans-serif; font-size: 12px; font-weight: 200;" fill="rgb(50, 49, 63)" stroke="none" stroke-width="1px">0.06</text><text x="0" y="19.77777777777777" dx="0em" dy="0.3em" style="text-anchor: end; visibility: hidden; font-family: &quot;Helvetica Neue&quot;, sans-serif; font-size: 12px; font-weight: 200;" fill="rgb(50, 49, 63)" stroke="none" stroke-width="1px">0.07</text><text x="0" y="0" dx="0em" dy="0.3em" style="text-anchor: end; visibility: hidden; font-family: &quot;Helvetica Neue&quot;, sans-serif; font-size: 12px; font-weight: 200;" fill="rgb(50, 49, 63)" stroke="none" stroke-width="1px">0.08</text></g><line x1="60" y1="0" x2="60" y2="178" fill="rgb(0, 0, 0)" stroke="rgb(204, 204, 204)" stroke-width="1px"></line></g></g><g transform="translate(60, 0)" clip-path="url(#clip_0)"><clipPath id="clip_0"><rect width="270" height="177"></rect></clipPath><g><g><g><line x1="0" y1="0" x2="0" y2="178" fill="rgb(0, 0, 0)" stroke="rgb(60, 60, 60)" stroke-width="1px" opacity="0.25"></line><line x1="33.75" y1="0" x2="33.75" y2="178" fill="rgb(0, 0, 0)" stroke="rgb(60, 60, 60)" stroke-width="1px" opacity="0.25"></line><line x1="67.5" y1="0" x2="67.5" y2="178" fill="rgb(0, 0, 0)" stroke="rgb(60, 60, 60)" stroke-width="1px" opacity="0.25"></line><line x1="101.25" y1="0" x2="101.25" y2="178" fill="rgb(0, 0, 0)" stroke="rgb(60, 60, 60)" stroke-width="1px" opacity="0.25"></line><line x1="135" y1="0" x2="135" y2="178" fill="rgb(0, 0, 0)" stroke="rgb(60, 60, 60)" stroke-width="1px" opacity="0.25"></line><line x1="168.75" y1="0" x2="168.75" y2="178" fill="rgb(0, 0, 0)" stroke="rgb(60, 60, 60)" stroke-width="1px" opacity="0.25"></line><line x1="202.5" y1="0" x2="202.5" y2="178" fill="rgb(0, 0, 0)" stroke="rgb(60, 60, 60)" stroke-width="1px" opacity="0.25"></line><line x1="236.25" y1="0" x2="236.25" y2="178" fill="rgb(0, 0, 0)" stroke="rgb(60, 60, 60)" stroke-width="1px" opacity="0.25"></line><line x1="270" y1="0" x2="270" y2="178" fill="rgb(0, 0, 0)" stroke="rgb(60, 60, 60)" stroke-width="1px" opacity="0.25"></line></g><g><line x1="0" y1="178" x2="270" y2="178" fill="rgb(0, 0, 0)" stroke="rgb(60, 60, 60)" stroke-width="1px" opacity="0.25"></line><line x1="0" y1="158.22222222222223" x2="270" y2="158.22222222222223" fill="rgb(0, 0, 0)" stroke="rgb(60, 60, 60)" stroke-width="1px" opacity="0.25"></line><line x1="0" y1="138.44444444444446" x2="270" y2="138.44444444444446" fill="rgb(0, 0, 0)" stroke="rgb(60, 60, 60)" stroke-width="1px" opacity="0.25"></line><line x1="0" y1="118.66666666666667" x2="270" y2="118.66666666666667" fill="rgb(0, 0, 0)" stroke="rgb(60, 60, 60)" stroke-width="1px" opacity="0.25"></line><line x1="0" y1="98.88888888888889" x2="270" y2="98.88888888888889" fill="rgb(0, 0, 0)" stroke="rgb(60, 60, 60)" stroke-width="1px" opacity="0.25"></line><line x1="0" y1="79.1111111111111" x2="270" y2="79.1111111111111" fill="rgb(0, 0, 0)" stroke="rgb(60, 60, 60)" stroke-width="1px" opacity="0.25"></line><line x1="0" y1="59.333333333333314" x2="270" y2="59.333333333333314" fill="rgb(0, 0, 0)" stroke="rgb(60, 60, 60)" stroke-width="1px" opacity="0.25"></line><line x1="0" y1="39.55555555555557" x2="270" y2="39.55555555555557" fill="rgb(0, 0, 0)" stroke="rgb(60, 60, 60)" stroke-width="1px" opacity="0.25"></line><line x1="0" y1="19.77777777777777" x2="270" y2="19.77777777777777" fill="rgb(0, 0, 0)" stroke="rgb(60, 60, 60)" stroke-width="1px" opacity="0.25"></line><line x1="0" y1="0" x2="270" y2="0" fill="rgb(0, 0, 0)" stroke="rgb(60, 60, 60)" stroke-width="1px" opacity="0.25"></line></g></g></g><g><g><line x1="0" y1="158.22222222222223" x2="270" y2="158.22222222222223" fill="rgb(0, 0, 0)" stroke="rgb(153, 153, 153)" stroke-width="1.5px"></line></g></g><g><g><line x1="33.75" y1="0" x2="33.75" y2="178" fill="rgb(0, 0, 0)" stroke="rgb(153, 153, 153)" stroke-width="1.5px"></line></g></g><g><g><g><g><g><path style="fill: none;" stroke="rgb(255, 112, 67)" stroke-width="2px" d="M34.877250000000004,-0.06070106330446379L35.295750000000005,16.304553148252467L35.329499999999996,27.188286833404533L35.47125,34.89309612466053L35.59275,37.84913050374564L35.829,44.50001270272338L35.8425,50.504590090777924L35.8965,54.402040016101935L36.591750000000005,57.825432891058824L36.855000000000004,58.075677756269144L36.9495,59.74774066185121L37.368,66.54729003654614L37.55025,66.9339730199909L37.658249999999995,70.44238060218042L37.7055,72.83652911134867L38.0295,72.83045158824973L38.11725,72.6570341612499L38.21175,72.4588799803848L38.279250000000005,73.40619617927348L38.5695,73.44283586167124L38.6235,74.33856217193987L38.954249999999995,74.76413308702621L39.04875,78.15945821763661L39.163500000000006,79.3173287179976L39.204,77.82202878586126L39.393,80.4017302881372L40.128750000000004,81.39881698951719L40.304249999999996,82.71434165295209L40.533750000000005,83.14005564962716L40.594500000000004,83.09390244658525L40.92525,81.63275857317802L40.9455,82.21475448699375L41.202000000000005,85.48872259112231L41.714999999999996,86.00794849754372L42.26175,84.89414257168826L42.633,85.73194269223687L42.65325,86.30269825549112L42.747749999999996,84.81961795103159L42.774750000000004,82.89492740313275L43.098749999999995,82.11730888326865L43.146,81.77740492656967L43.375499999999995,82.98289547376126L43.443,85.03658395090385L43.6455,87.38415762832159L44.03025,87.58701500724158L44.226,87.76363720024618L44.334,88.79194368370999L44.442,89.83442370828021L44.82,90.02692696029912L45.16425,91.94712937221034L45.28575,91.28786039955455L45.3465,91.69919649724395L45.441,90.18529817506854L45.4545,91.98325393690459L45.47475,91.31965259634394L45.771750000000004,90.18860235168299L46.197,90.58952825280286L46.25775,92.00405667828873L46.3455,90.99533753359727L46.36575,92.26130529038092L46.41975,91.06040669158288L46.68975,90.46941402228454L46.804500000000004,92.01986237370042L46.89225,92.88513268499084L47.25675,92.65458917301001L47.493,94.44660213730727L47.76975,93.77624044171833L47.898,94.68309517050237L48.51225,88.88632330901098L48.59325,86.5846998151541L48.67425,86.71199615470303L48.80925,90.89575834211085L48.843,93.89237420772669L48.84975,92.16123852407694L48.98475,92.47520790198236L49.018499999999996,91.99067395083712L49.322250000000004,91.47194975374371L49.40325,88.2300327683979L49.639500000000005,91.43535241676334L49.875750000000004,93.77229165218715L49.8825,94.7224865665979L50.193000000000005,95.01955592896223L50.30775,90.1740538043387L50.321250000000006,89.96193959490105L50.355,89.80591013933606L50.52375000000001,93.06277428742811L50.5305,93.3562504172915L50.598000000000006,95.29963025374774L50.6115,90.30400394486855L50.64525,91.25745865887221L50.841,92.19164983740934L50.94225,90.15346614043142L50.982749999999996,91.20951259380051L51.873749999999994,92.62575369027536L52.245000000000005,93.73234857090681L52.3395,93.26755614857893L52.57575,94.21365641357447L53.297999999999995,64.64949911251169L53.777249999999995,67.37303447374403L54.07425,73.36010872710962L54.256499999999996,78.3582732349654L54.27675,78.983488983778L54.66824999999999,82.80670882078081L55.08675,86.69237650322161L55.323,86.79048309590101L55.552499999999995,87.38752331653643L55.647,87.17680621337537L55.6605,88.12477454193751L55.667249999999996,88.08922825113594L56.05875,90.73922177599597L56.754,91.21819840538538L57.03075,88.10591515303474L57.239999999999995,91.16218711509134L58.05,91.38654064215848L58.1715,89.59376375257881L58.185,90.91608546139081L58.5225,92.51459590835803L58.9005,91.26507848911213L59.00175,91.71384031886164L59.35275,85.72210910176483L59.494499999999995,88.34000002430359L59.54175,86.80502568733583L59.832,89.7689062300437L60.264,92.82458351776349L60.452999999999996,88.7264393280136L60.641999999999996,90.13277836105351L60.992999999999995,89.8361441580124L61.411500000000004,91.00258606929916L61.48575,92.77339283647407L61.978500000000004,93.56422035045122L62.073,92.51291990897408L62.1135,92.65207436455101L62.28225,92.88598502142914L62.316,93.37325147534288L62.52525,93.52370464252358L62.802,94.84328305192943L62.88975,95.50785161734515L62.90325,96.42092683257529L63.449999999999996,94.89779934027248L64.071,93.89911950869433L64.18575,94.94165262393662L64.3275,95.45639472756955L64.989,96.15638303689663L65.232,96.61485065512693L65.259,95.5406887805697L65.313,93.77590348247773L65.8125,93.75254955908773L66.069,92.98685693687204L66.1635,28.96812629137702L66.42,-7.482570953562259L67.3245,-1.2143784823195745L67.83749999999999,21.24451847235636L67.85100000000001,33.97231707853905L68.21549999999999,46.43722519274917L68.4045,54.785310686275224L69.11325000000001,63.71525605558048L69.72075,71.03772534684884L69.82875,74.42064291888406L69.92325,77.36471930867127L70.33500000000001,49.427434334179566L70.4835,52.54613055925816L70.97625000000001,63.26425336021266L70.98975,70.87493522032283L71.20575,74.22700182171506L71.46225,78.83497740569815L71.982,80.71658795256612L72.08325,82.70561483344287L72.38025,83.41551490463657L72.954,84.70442135899636L73.06875,87.64046397071704L73.089,87.25166849451239L73.3185,86.7713401552126L73.33200000000001,84.33961836579618L73.37925,86.53221252808875L73.62225,86.49251593169183L73.764,86.03242422683337L73.926,85.42257561014075L74.00025000000001,87.19959590801516L74.1825,82.52403722320682L74.3175,84.43933461178155L75.06675,87.57587886030096L75.13425,88.17024468155144L75.47175,86.34243338302964L75.60000000000001,89.2496222899793L75.68775,90.9273278078632L75.72824999999999,90.28841863639333L75.816,87.2032992582219L76.20075,88.5543839233867L76.356,88.40239381445622L76.38974999999999,87.35141459894086L76.55175000000001,85.75196184723055L76.70025000000001,87.22094870148517L76.788,90.28337063050651L76.94999999999999,88.82488134232324L77.598,83.76080651451777L77.75999999999999,86.67707947911597L78.1245,88.11909335069922L78.19200000000001,89.23467707694742L78.32025,90.77944530020194L78.68475,30.795392720388264L78.948,-1.4765237890096614L79.2585,-17.123992818862973L79.96050000000001,8.750293331382238L80.0145,26.859753228117228L80.11575,40.87873991542409L80.77050000000001,51.86858362748899L80.946,58.39507451796007L81.0945,65.54499253716153L81.71549999999999,68.91020533228897L81.76950000000001,76.74971236590864L82.04625,77.71622271023784L82.458,32.96357500032806L82.66725,21.509708234526073L83.09925000000001,36.21935833028394L83.22075000000001,51.037760299300444L83.28825,57.53600646103074L83.295,62.29934697508935L83.42325,65.37254693272453L83.57849999999999,61.5739962561029L83.70675,63.311546766280344L84.03750000000001,64.95305534016242L84.105,70.90599189751701L84.12525,74.88483931685832L84.2265,73.74733504360789L84.44925,67.38020035051827L85.11075,73.6374086855595L85.347,76.27595165748531L85.63725,67.03821889586729L85.67775,53.7381826402395L86.13,61.65422281063158L86.319,68.65223017661376L86.3865,70.65901497467188L86.62275000000001,76.04293398802444L87.075,77.79607169542358L87.291,79.3933981792283L87.68925,78.91196162055178L87.9255,81.92783633268687L87.99975,83.94383333826813L88.08075,81.47450809369008L88.1955,80.97254694051588L88.965,78.746607125417L89.20124999999999,79.33784871270527L89.24175000000001,79.64681607268415L89.7075,81.37478317289846L90.0045,81.4536968570442L90.20025,85.38145416917682L90.234,83.01698968243635L90.29475,84.10177325863859L90.90225,83.85990225403373L90.9225,74.58098438326503L91.1115,58.623685107294634L91.179,57.22721469739909L91.5705,65.94734480451115L91.80675000000001,71.23955292849747L92.0295,73.47436091379393L92.03625,72.62384203121701L92.44125,77.70708802634528L93.27825,81.34876103245315L93.2985,84.75494761293986L93.67649999999999,83.4892428896379L93.852,86.08280692785291L93.87225000000001,85.68604903393572L94.014,87.32261219869869L94.06125,88.50469186521725L94.2165,88.49009493162525L94.33125,90.03868262538158L94.45275,88.31279971938635L94.49324999999999,87.06845778536251L94.87125,88.05639987574885L94.92525,89.28559832737302L96.02550000000001,87.05686910462981L96.07275,85.88189402395716L96.255,84.7572245588356L96.633,81.96706665300053L96.849,36.29513851184612L96.99075,32.53569402854359L97.281,42.52096379667282L97.30125,52.435724781505186L97.43625,57.19761758903444L97.48349999999999,62.88444682938392L97.659,66.44788775234939L98.1315,68.15656597515323L98.19225,72.47767114765341L98.2395,71.14164545346767L98.32725,72.73741961445097L98.47575,77.3961997656896L98.73225,80.09420410301863L98.93475,81.06713683443547L99.09,84.0795255073809L99.2115,86.01377322223537L99.684,87.69262864293044L100.17,85.67867089835303L100.19024999999999,83.04734195056722L100.46025,84.50900426775117L100.62225,85.35863766235053L101.061,82.55880062345496L101.58749999999999,83.02844120202758L101.62125,83.25906946542838L101.64150000000001,84.37505574659957L101.817,77.77018049738678L102.11399999999999,81.63955296439386L102.384,83.85701643378346L102.49875,84.48188065724722L102.97800000000001,87.05514922349609L103.113,88.77369177174607L103.16025,85.40960258410266L103.923,87.61846644447445L103.94325,87.30152652720331L104.08500000000001,87.85590197678239L104.48325,86.26123844274049L104.55075,83.28900614989698L104.57775,75.89165939391725L104.7735,80.85224307080749L104.99625,57.96558567186578L105.34725,62.011674219173486L105.462,68.03083925937419L105.5565,73.21766745478128L105.66449999999999,70.29162537314622L105.77924999999999,73.39279844186251L106.04925,75.77209494537372L106.35975,77.92563066498195L106.3665,80.24760793748285L106.515,80.49453317186902L106.56225,80.64788113538096L106.75125,84.04730843870706L106.81875,85.87237333080492L106.92675,85.22039575668964L106.9875,82.13141984120682L107.08200000000001,82.49490106991998L107.33850000000001,79.68420660497655L107.35875,75.13855150674263L107.58825,77.30616910458293L107.61525,79.00689941962968L107.7705,81.6603743082177L107.81099999999999,83.57579351142394L107.8245,84.14232307147854L108.0945,82.8991341903785L108.135,84.29050365047198L108.22274999999999,85.62042650686956L108.25649999999999,84.64199862212958L108.6885,85.89756882056871L108.81675,72.19992144159973L108.8775,67.86009762371413L109.18124999999999,70.65876379884845L109.33649999999999,77.2604501469255L109.35000000000001,78.28484104480931L109.35675,78.95383518514323L109.755,79.8064089948572L109.836,81.84056439539947L110.82825,81.32997619633569L111.18599999999999,82.9390263515858L111.321,82.04575887801471L111.53025000000001,83.11314287406867L111.591,81.48167200194729L111.70575000000001,85.39163476345432L111.82050000000001,84.74677042236422L112.02974999999999,81.70879490549991L112.37400000000001,78.87572262179896L112.52925,71.86885258053964L112.62375,63.077460964823445L113.12325,70.68214704743637L113.89275,68.67871668429144L114.54075,77.06245920023568L114.5745,79.49062596072835L114.66900000000001,79.94208705345176L114.77024999999999,82.99873341008984L114.81750000000001,84.9613393717108L115.02674999999999,85.78519272776367L115.6815,85.77019255541914L115.857,86.39176088349579L115.884,86.80943619277015L115.99199999999999,86.90552984714071L116.2755,87.55624944061441L116.70750000000001,88.3118262375816L116.72775,89.51038955296951L116.83575,89.05900868032568L117.48375,32.899937633863914L117.693,10.720319469619199L117.8415,6.230639658943517L118.48275000000001,28.363004760158134L118.96875,46.449510142929626L119.27924999999999,58.97833561443919L119.46825,63.97472758153593L119.8665,66.44440964694527L119.9745,72.49752983021827L120.18375,76.88130029513626L120.66975000000001,78.38364725792917L120.798,78.24671778769003L121.08825,76.08737495820812L121.22325000000001,78.6348796298304L121.61475,75.35956741234853L121.72949999999999,79.1315445991031L121.91175,82.06049972656729L122.0535,79.38882221841166L122.13449999999999,76.50199193197498L122.23575,79.0366524205884L122.26275,81.45543278797815L122.3775,83.19012245198033L122.62049999999999,82.9417811313864L122.8905,84.78746869111305L123.11325000000001,85.50985197722795L123.61274999999999,85.75589236318994L123.85575,57.41934764802414L124.21350000000001,61.15940914007004L124.2405,64.03158898821658L124.3755,63.71782792743092L124.70625,68.19829039720985L124.902,71.52426539032632L125.1855,75.61629790035936L125.52974999999999,74.47246676531928L125.631,58.79066306923991L125.685,57.69864705084197L125.7255,63.12074659129374L126.08324999999999,67.4943475370563L126.10350000000001,73.99485018256382L126.3735,74.28807907212288L126.54225,24.046480571016104L126.738,23.641873173783864L126.9675,36.12822359242941L127.20375,47.615474876397286L127.35900000000001,58.44161295955054L127.467,64.17975961670746L127.82475,70.64801804989524L127.95975,71.15770231414471L127.97999999999999,67.67152616882173L128.0475,49.72779735031037L128.088,37.64218813374359L128.2365,44.99123985353609L128.79,51.50192809704376L129.74175,61.00003284178236L130.18725,69.84248978804118L130.19400000000002,76.2964000583987L130.2345,77.4773727266769L130.29524999999998,74.31140609767054L130.41,76.765065027392L130.491,79.95225055734612L130.5315,80.45532935823512L130.92975,81.3878275895712L131.26725000000002,81.56009872821554L131.5845,80.27632933630429L131.82750000000001,79.62458017929723L131.9895,82.55362476718356L132.00975,82.34490495808083L132.516,77.9735766602784L132.5565,72.49803671160714L132.75900000000001,75.28782334345868L132.81975,77.93564137734614L132.84675,78.90466515770142L132.88725,78.11790911154962L133.28549999999998,77.50974576087337L133.50825,78.81691019383L133.515,78.37556119218291L133.569,82.42594339787522L133.596,82.96714341048136L133.71075000000002,83.4693212142478L134.14275,83.89519965038045L134.27100000000002,83.08946932320336L134.49375,84.70610654399188L134.5005,84.77185691092312L134.6625,82.92036514033549L135.18224999999998,85.23459062374107L135.6075,83.48979662826872L135.91799999999998,83.87636332693427L136.21499999999997,85.27693310502143L136.34324999999998,85.54936817494149L136.7955,85.71803972248503L137.187,26.039035374666867L137.34225,-10.224651915980019L139.02974999999998,-7.193430115948388L139.99499999999998,17.949406286641448L140.157,31.02374097937215L140.21775000000002,41.99845577419126L140.25825,49.41900200463857L140.56875,54.660747864085906L140.58900000000003,59.009725724600855L140.71725,61.40323600732536L140.8455,64.31192890145333L141.60825,66.2143174171723L141.70275,67.36479523342513L142.128,69.78099706375264L142.39125,71.30406899547108L142.53300000000002,71.04475562152582L143.01899999999998,73.67375255650668L143.0865,75.9119035371393L143.11350000000002,75.31243081036044L143.43075,74.22629424087569L143.91674999999998,74.194370699837L144.06525,76.8866835234051L144.18,77.57455406836246L144.4905,78.14619092164051L144.72,81.67344326321184L145.15875,79.32106113228208L145.52325,80.62098975852929L145.69875000000002,81.29753549157395L145.7325,76.62481437082378L146.21175,80.45806908978197L146.45475000000002,75.99679559824106L146.78549999999998,78.6732689931758L147.204,79.47095292245619L147.21075,80.37296401323043L147.37949999999998,80.36865607748462L147.44025,82.36963744206578L147.53475,82.2696775815157L147.81825,81.62764575210817L148.94549999999998,36.93832869738236L149.15475,44.24549561387238L149.38424999999998,11.762777984681009L149.53949999999998,20.857810149251122L149.796,38.56864776127392L149.86350000000002,49.2682152915105L150.11325,58.267925275385L150.16725,65.27464702375573L150.33599999999998,69.25218222394957L150.4575,71.25346484892789L150.471,74.88366802137362L150.62625,79.13889844709729L150.63299999999998,79.78562233941213L150.63975,76.66001058212127L150.66000000000003,77.217165705443L150.78825,76.53175870921379L151.02450000000002,74.15206625005636L151.13925,75.86561095811876L151.23375,78.15503379032452L151.3755,79.19006946280861L151.497,79.33803707980934L151.5645,78.73659953913055L152.16525000000001,80.16551621421752L152.25975,81.40913620589919L152.30025,83.71103019250017L152.39475,83.84478687087247L152.4555,84.69210215777552L152.50275,82.746744004444L152.5095,82.20454811970401L152.70525,84.58868170796505L152.77275,85.53858408078091L152.90775,86.02104618463306L153.3735,80.04242668206194L153.70425,78.90729592435378L153.711,81.40900235158561L153.92700000000002,78.4841732469143L154.18349999999998,78.37547136798483L154.93275,79.97433483408216L154.99349999999998,79.44539341281313L155.10150000000002,81.63287302689695L155.12175,84.24787225559848L155.1825,83.99438547168803L155.3715,84.07304688935258L155.60774999999998,10.376939493949578L155.68875000000003,12.683785175404154L155.952,32.993029474953204L156.12075,46.34982580195896L156.2355,54.18605972942993L156.6945,59.09018166366917L156.843,64.70953144201525L157.032,68.31060395911004L157.3965,69.89170544841025L157.6935,73.95942862661893L158.29425,77.7749493310782L158.30100000000002,78.93976214799217L158.88825,82.40344489644393L158.94224999999997,83.06951616954393L159.246,85.62502919883481L160.06275000000002,53.57217243595824L160.10999999999999,44.399021133817L160.30575,49.689612186308096L160.5555,60.49721015342067L160.95375,68.93009132254913L161.27775,66.41024077003475L161.54775,70.05465325553381L161.7165,71.69891894363859L161.84475,72.92712439466283L161.8785,72.54255412043392L162.03375,73.9536959053353L162.18224999999998,75.98657261458689L162.32399999999998,75.72916156460768L162.783,79.32096235863986L163.14075,80.82007318881722L163.53224999999998,81.31660669202815L163.82924999999997,81.5429206546127L163.85625000000002,81.85932024521173L164.025,82.95290569055271L165.27375,83.78726332207104L165.375,85.15731913207387L165.39525,85.47292566115705L165.54375000000002,86.47666389964384L165.58425,86.26818400157906L165.90825,83.89334533598736L166.0095,85.19835804692934L166.2795,83.0818489850417L166.32,80.72090847325123L166.41449999999998,83.37107010237784L166.48874999999998,85.23055434490026L166.5495,84.96590887068577L166.85999999999999,85.20122796100364L166.90725,86.22055169888195L166.93425,86.56105818916079L166.97475,86.5725910591539L167.373,86.12290486327215L167.55525,85.59397069459666L167.7105,86.096525097297L168.183,85.71365429293165L168.33149999999998,83.91717875399819L168.55425,85.69235763654952L168.669,66.44218404515094L168.71625,64.61526350234053L168.98624999999998,67.23062091435786L169.07399999999998,71.96494932061576L169.10775,75.59293097375185L169.14825,77.65242464745388L169.16850000000002,78.02264938926639L169.6815,77.58236629273063L169.68825,80.84373120370844L169.70175,82.23131125577957L169.98525,84.89216911440295L170.0055,84.78404688491213L170.21475,84.69656620084186L170.397,84.06106995803147L170.41725000000002,87.12501568354385L170.451,86.85650575214953L170.829,87.9096922069715L170.93025,86.34958445833351L170.99099999999999,80.98253002051248L171.00449999999998,82.43583500289493L171.26775,83.77244891400612L171.33525,86.78498899345882L171.42974999999998,85.2842369044142L171.72,84.87336982540855L172.02375,86.44388667694271L172.3005,84.6846380522277L172.38825,84.34253912378571L172.39499999999998,84.61229043992559L172.53,83.97610573379846L172.5435,83.50803254821425L172.57725000000002,84.76896781060876L172.6515,83.9676732626253L173.394,85.31074737085397L173.40075000000002,85.97690136377112L173.54250000000002,86.19828719317705L174.0015,88.34386214400539L174.00825,87.73554973408042L174.02849999999998,89.67369417312419L174.03525,88.49547532907067L174.2985,86.69349497251937L174.35925,87.12806582268018L174.52125,79.4819662997083L174.744,81.67383451501928L174.91275,84.49800097224687L175.15575,85.01118668946833L175.41225,86.19583641641597L175.68225,84.78557913990771L175.73624999999998,83.75094475443338L175.95225,83.69936765224176L176.04000000000002,83.27575026281272L176.47199999999998,83.6946781283937L176.91074999999998,85.74726654991112L177.066,87.29261699725615L177.633,89.32182267419817L177.65324999999999,88.60720631944531L177.687,87.36462213808069L178.13925,85.0048080748478L178.26074999999997,87.02614399853968L178.767,84.08091788396081L179.03025,86.68267916318017L179.037,88.67962655232093L179.62425,89.46148796694257L180.09675,81.45137341840466L180.18449999999999,84.26163451155729L180.38025,88.88086669479897L180.387,87.12622133991175L180.66375,85.7181943515337L180.82575,84.13981677515353L180.86625,86.81799949461049L181.00125000000003,86.10895138136841L181.04175,88.20422837228952L181.1835,86.52098660854656L181.22400000000002,88.74830686562156L181.629,87.46449549172723L182.02724999999998,87.75795637141971L182.24325,88.89684179302174L182.2905,84.4958394937284L182.85750000000002,85.79697969988389L183.73499999999999,86.87762744355109L183.90375,86.28929020971137L183.9915,87.5252445168566L184.17374999999998,87.96339356399538L184.221,89.96319972639127L184.29525,89.56457811228671L184.32899999999998,90.2429462967251L184.38299999999998,89.98489391195382L184.47750000000002,90.68605306313331L184.66649999999998,88.91507669229841L185.13225,86.23563974529891L185.1525,86.21773289367457L185.43599999999998,79.9296645896462L185.67225000000002,80.22834450530638L185.922,83.1509985862498L186.53625,85.36355759464979L186.64425,86.80615734912921L187.3665,88.55792459032384L187.41375,88.90068330475557L187.49474999999998,88.12243416506702L187.8255,89.97845067407546L187.839,90.56934195123296L187.91325,91.80821268575696L187.92,91.84984977732483L187.95374999999999,90.89473828819953L188.5275,91.5093159624789L188.54774999999998,91.93865237725896L189.54,91.40877825607068L189.56699999999998,90.54694242563701L189.57375,86.7650347892322L189.6885,86.24652872545786L189.78975,87.64126150910684L189.85725,90.95252843561548L189.9315,90.77516049992045L189.96525,89.26506843411855L189.999,88.9694822776287L190.02599999999998,89.08010827257715L190.0665,90.32757109853316L190.2285,89.92612144951966L190.296,91.25837049248781L190.4715,91.9647648521706L190.485,92.09143466350768L190.77525,91.2591493496471L190.9305,90.15726335129845L191.27474999999998,89.4240864922837L191.43675000000002,91.11500013465431L191.565,92.0650506306706L191.6595,92.6825590080762L191.88225,90.78868675841686L192.645,86.42650933631538L192.97575,89.88904950361417L193.38750000000002,90.5937674721537L193.5225,91.47837046996833L193.59675000000001,90.21998964676905L193.73175,90.24951063418841L194.13675,90.81462691983918L194.2245,92.7101790394068L194.47425,92.3663091591406L194.60925,93.77196087428379L194.68349999999998,87.00746852285069L195.26399999999998,89.52162551160497L195.3315,90.3550055765328L196.28325,91.71151636632914L196.533,89.5490364586868L196.5465,89.44515804979552L196.74224999999998,88.52449746317343L197.0055,89.52136301893664L197.3295,88.44859286221403L197.6535,91.34024112930089L197.667,92.80482017437068L197.72099999999998,91.62792589065432L197.9235,92.61596399424671L198.07874999999999,91.41220865441943L198.17325000000002,92.20754762235103L198.55800000000002,92.71581363259776L199.20600000000002,90.96487512867398L199.50975000000003,91.58854944316991L199.53675,91.18683960787192L199.94174999999998,90.53554828085213L200.25225,90.20678970022956L200.45475,91.33711714958855L200.60325,93.04174785530658L200.65725,91.83663433024938L201.0825,92.30331502561232L201.48075,91.80891499641216L201.68325,94.15737134384055L201.83175,93.0286003255198L202.0545,92.42522197650635L202.25025000000002,91.71763352896166L202.34475,92.88567974640827L202.554,93.46229527146625L202.81725,94.13690072282093L203.39775,95.6223679442243L203.8905,95.74592242195423L204.05925,94.00676085020962L204.147,92.95010796996803L204.19425,91.32005206234962L204.20775,92.2823424269023L204.74099999999999,93.72909009299917L205.13925,94.8983813620807L205.90875,92.06278907772442L206.01,93.16565826445742L206.361,92.61404517636652L206.54325,94.76946546045514L206.96175,94.64990583834923L207.1305,94.47587263319285L207.73125000000002,90.72212717374201L207.981,89.46577609178776L208.21725,93.35371104636204L208.32525,94.64684942750513L208.44,90.62697043716602L208.71675,91.50032870789187L209.35125000000002,90.77724688011959L209.44575,92.74153887618051L209.55374999999998,92.08736588590422L209.69549999999998,92.59480010555697L209.75625,92.12374996859405L209.86425000000003,93.57670747006414L210.2895,93.57114540926634L210.29625,93.27906128600449L210.39075,93.41588414213186L211.13325,94.78152313464889L211.221,96.17035172297298L211.29525,95.4685640820024L211.90275,96.70420534738844L211.97025,97.87989075777298L212.01074999999997,97.04231009097649L212.42249999999999,95.6418365590478L212.706,95.18099984708326L213.77249999999998,95.1415434060137L214.029,96.28939631779168L214.3395,94.32573673777618L214.353,94.84863255081942L214.62300000000002,95.45160614710737L214.62975,96.1315067015457L214.6365,97.70547890809716L214.7445,95.86809766512968L214.83225000000002,98.37579335835028L214.84575,98.84301031006576L215.514,98.29371629513557L216.45225000000002,96.17935015838364L216.52650000000003,97.65437995905953L216.9585,97.11751334245834L216.999,97.06370199215579L217.03949999999998,98.60862019421624L217.06650000000002,97.5038703222127L217.07325,98.28820590874528L217.5795,99.13167080502295L217.84949999999998,95.97042910058317L218.22074999999998,97.01121564851282L218.95649999999998,97.18711550455271L219.03074999999998,98.22577209259987L219.08474999999999,99.06107900862779L219.40875,98.8810455474085L219.57075,95.34376422335994L219.84074999999999,95.88862170705042L219.86100000000002,95.05769141870046L220.07025,95.2951819970977L220.13774999999998,94.03635978747039L220.185,95.51564836928425L220.3065,91.61153978497624L220.69125,93.54664185213882L220.82625000000002,91.71736652527288L220.8465,92.77127744083027L220.98825,92.62452078390106L221.56875000000002,93.71963763154338L222.183,96.27746952987454L222.1965,96.27751562777537L222.4125,96.66216583387747L222.53400000000002,97.46202981341564L222.68925000000002,98.6264651111882L224.44424999999998,99.1429973107516L224.61975,98.46395795383356L224.91675,98.04790075589862L225.288,98.27578952890424L225.7065,97.61964917503204L225.79425,99.81093568861594L226.41525,99.73232910390762L226.61100000000002,100.38567312836952L226.87425,99.79114634495494L227.313,99.12103368859401L228.76425,99.70899899614399L229.29749999999999,99.91355874757826L229.47299999999998,100.00858873697635L229.6215,99.46393774360592L229.74975,98.88417091216748L229.88475,99.65604787549373L229.9185,99.29210796642897L230.0265,100.12943577647036L230.1075,99.45809976784284L230.2155,101.18392821136518L230.39775,101.9297854137756L230.85675,101.76990449687533L231.1875,99.43582360502496L231.27525,98.13445130123544L231.32924999999997,99.7000898144011L231.363,100.25310126008112L231.58575,100.52918253643888L231.9705,100.15616139486909L232.4565,101.2283146198851L232.67925,101.2148927612196L232.7265,100.24321440039617L232.78725,100.38292484456095L233.12475,100.60530104820207L233.145,99.95172528641652L233.28675,98.90495112204226L233.36775,99.03347973821762L233.496,100.56553776011455L233.62425000000002,99.44788043069197L234.54225,100.09080645462286L235.089,99.17830919503086L235.09574999999998,100.56919849151389L235.12275,100.9658992966719L235.32524999999998,100.0066631848704L235.4535,100.25609073000365L235.76399999999998,101.59715529522295L236.25,101.04578353111543L236.28375,98.95908050424613L236.45925,98.38656991732175L236.76975,99.62977450828319L236.87099999999998,99.23876965818478L237.17475000000002,100.42759111457339L237.4245,100.96102281702852L237.71475,100.38006223217623L237.84975,97.14185972265653L237.89025,97.93786788931838L237.97799999999998,96.33202059438636L238.167,97.02913689370772L238.437,98.3172236620071L238.45725000000002,96.91989277633125L238.72725,98.19645113712474L239.09175,98.10312426997112L239.17950000000002,99.5572036956522L239.34825,98.55800414544316L239.39550000000003,99.55450972660233L239.4225,99.792438753906L240.09075,99.02848273092958L240.111,98.25155212625535L240.2595,99.91387498266302L240.381,99.90816974506194L240.597,102.21375651544248L241.0155,103.13991765676157L241.11,103.42844183609482L241.22475,103.85267442086693L241.23149999999998,104.35220351588345L241.515,103.71948508285452L242.18325,103.76967800111686L242.3655,102.78074646861026L242.56125,103.18764989895028L242.97975,103.51524256593757L243.351,103.35331213960447L243.67499999999998,103.95567899505599L243.70875,100.41833682592892L244.43775000000002,101.42366717896572L244.512,102.05939273819352L245.34225,102.2120845205686L245.7405,103.26822075965612L245.99025,102.80877055360442L246.132,102.42685238566801L246.38175,102.84059329259479L246.62475,104.04517043752986L246.6315,103.52781786727353L246.80025,105.29281878065201L247.21875,104.79885878716587L247.25925,104.29112871090048L247.3605,104.81551511247639L247.698,104.30357008804027L247.80599999999998,104.11532372743704L247.8735,104.88608709017261L247.98825000000002,99.31208154582873L248.14350000000002,101.02250816770066L248.454,101.44492018032672L248.89275,102.99619735034136L248.94,104.3158536273681L248.994,101.92316349788497L249.318,100.51716796159472L249.37875,102.21325741569038L249.642,102.5180532125887L249.77700000000002,102.89174188106794L249.86475000000002,100.1936910591959L250.425,101.03554098792839L250.8435,102.82361416809539L250.9245,103.78893540311854L251.14724999999999,103.73263802467518L251.16074999999998,101.58235104749507L251.43075,101.83381215256398L251.8695,101.62288138647709L252.369,100.65854111672674L252.68625,102.34514237129098L252.92925,103.60047764721888L253.125,103.22007261070304L253.32075,103.76228005500252L253.4085,103.63650676826937L253.42875,103.02619235448222L253.87425,103.21966888612485L253.8945,104.06841731730685L254.18474999999998,103.29951432411687L254.448,102.65367848646864L254.5155,98.25488192687433L254.53575,100.75283537417651L254.8935,100.45812076793115L255.27824999999999,100.23367688337565" fill="none"></path></g></g></g></g><g opacity="0.2"><g><g><g><path style="fill: none;" stroke="rgb(255, 112, 67)" stroke-width="2px" d="M34.384499999999996,-10.754503581258973L34.816500000000005,10.90814394421048L34.877250000000004,14.004165656036804L35.295750000000005,39.707128514846175L35.329499999999996,43.056875030199706L35.47125,46.25619324710635L35.59275,42.23849704861641L35.829,54.41601298915015L35.8425,59.478779527876114L35.8965,60.23548905385864L36.591750000000005,62.95381542046863L36.855000000000004,58.45075090063942L36.9495,62.2546557519171L37.368,76.74373675717247L37.55025,67.51389931639034L37.658249999999995,75.70445750488174L37.7055,76.42753304044405L38.0295,72.82133563690714L38.11725,72.39691372712451L38.21175,72.1616526212957L38.279250000000005,74.82715925574303L38.5695,73.49779512484866L38.6235,75.68214781747923L38.954249999999995,75.40248837073642L39.04875,83.25244070092836L39.163500000000006,81.05413340197669L39.204,75.57907971408632L39.393,84.27128168609407L40.128750000000004,82.89444684320024L40.304249999999996,84.68762849105728L40.533750000000005,83.77862661414675L40.594500000000004,83.02467264400588L40.92525,79.44104280074436L40.9455,83.08774834871292L41.202000000000005,90.39967471692297L41.714999999999996,86.78678735428385L42.26175,83.22343368662727L42.633,86.98864287137985L42.65325,87.15883159968588L42.747749999999996,82.59499749541283L42.774750000000004,80.00789158211813L43.098749999999995,80.95088110367456L43.146,81.26754899157417L43.375499999999995,84.79113129443591L43.443,88.11711666650241L43.6455,90.90551814436911L44.03025,87.89130107561746L44.226,88.02857048975096L44.334,90.33440340889824L44.442,91.39814374513095L44.82,90.31568183832698L45.16425,94.82743299007414L45.28575,90.29895694057146L45.3465,92.31620064377783L45.441,87.91445069180594L45.4545,94.6801875796583L45.47475,90.32425058550304L45.771750000000004,88.49202698469162L46.197,91.19091710448264L46.25775,94.1258493165175L46.3455,89.4822588165601L46.36575,94.1602569255564L46.41975,89.25905879338582L46.68975,89.58292501833704L46.804500000000004,94.34553490082422L46.89225,94.18303815192645L47.25675,92.30877390503882L47.493,97.13462158375316L47.76975,92.77069789833492L47.898,96.04337726367844L48.51225,80.19116551677385L48.59325,83.13226457436878L48.67425,86.90294066402647L48.80925,97.17140162322256L48.843,98.38729800615046L48.84975,89.56453499860233L48.98475,92.94616196884049L49.018499999999996,91.26387302411926L49.322250000000004,90.69386345810359L49.40325,83.3671572903792L49.639500000000005,96.24333188931146L49.875750000000004,97.27770050532287L49.8825,96.14777893821397L50.193000000000005,95.46515997250874L50.30775,82.90580061740344L50.321250000000006,89.64376828074454L50.355,89.57186595598856L50.52375000000001,97.9480705095662L50.5305,93.79646461208661L50.598000000000006,98.21470000843206L50.6115,82.81056448154978L50.64525,92.68764072987769L50.841,93.59293660521506L50.94225,87.09619059496454L50.982749999999996,92.79358227385414L51.873749999999994,94.75011533498763L52.245000000000005,95.39224089185396L52.3395,92.57036751508711L52.57575,95.6328068110678L53.297999999999995,20.30326316091748L53.777249999999995,71.45833751559258L54.07425,82.340720107158L54.256499999999996,85.85551999674902L54.27675,79.92131260699695L54.66824999999999,88.54153857628503L55.08675,92.5208780268828L55.323,86.93764298492006L55.552499999999995,88.28308364748955L55.647,86.8607305586338L55.6605,89.54672703478072L55.667249999999996,88.03590881493356L56.05875,94.71421206328604L56.754,91.9366633494695L57.03075,83.43749027450878L57.239999999999995,95.74659505817625L58.05,91.72307093275917L58.1715,86.90459841820929L58.185,92.89956802460883L58.5225,94.91236157880888L58.9005,89.39080236024326L59.00175,92.38698306348589L59.35275,76.73451227611964L59.494499999999995,92.26683640811179L59.54175,84.50256418188411L59.832,94.21472704410552L60.264,97.40809944934314L60.452999999999996,82.57922304338878L60.641999999999996,92.24228691061337L60.992999999999995,89.39119285345076L61.411500000000004,92.75224893622928L61.48575,95.42960298723644L61.978500000000004,94.75046162141693L62.073,90.93596924675835L62.1135,92.8608060479164L62.28225,93.23685100674628L62.316,94.10415115621355L62.52525,93.74938439329465L62.802,96.82265066603819L62.88975,96.50470446546872L62.90325,97.79053965542052L63.449999999999996,92.6131081018183L64.071,92.4010997613271L64.18575,96.50545229680007L64.3275,96.2285078830189L64.989,97.20636550088723L65.232,97.30255208247237L65.259,93.92944596873389L65.313,91.12872553533977L65.8125,93.71751867400275L66.069,91.83831800354851L66.1635,-67.05996967686545L67.2435,-1.521962159209778L67.30425,8.026466164324006L67.3245,9.146312269899568L67.83749999999999,54.932863904370194L67.85100000000001,53.06401498781311L68.21549999999999,65.13458736406432L68.4045,67.30743892656432L69.11325000000001,77.11017410953838L69.72075,82.02142928375137L69.82875,79.49501927693683L69.92325,81.78083389335207L70.33500000000001,7.521506872442046L70.4835,57.22417489687601L70.97625000000001,79.34143756164444L70.98975,82.29095801048807L71.20575,79.2551017238034L71.46225,85.74694078167278L71.982,83.53900377286804L72.08325,85.68915515475801L72.38025,84.48036501142714L72.954,86.63778104053603L73.06875,92.04452788829802L73.089,86.6684752802054L73.3185,86.05084764626291L73.33200000000001,80.69203568167156L73.37925,89.8211037715276L73.62225,86.43297103709644L73.764,85.34228666954569L73.926,84.50780268510181L74.00025000000001,89.86512635482681L74.1825,75.51069919599426L74.3175,87.31228069464365L75.06675,92.28069523308012L75.13425,89.06179341342714L75.47175,83.60071643524698L75.60000000000001,93.61040565040376L75.68775,93.44388608468903L75.72824999999999,89.33005487918852L75.816,82.5756201909648L76.20075,90.58101092113388L76.356,88.17440865106052L76.38974999999999,85.77494577566782L76.55175000000001,83.35278271966509L76.70025000000001,89.42442898286713L76.788,94.87700352403853L76.94999999999999,86.63714741004837L77.598,76.16469427280954L77.75999999999999,91.0514889260133L78.1245,90.28211415807405L78.19200000000001,90.90805266631973L78.32025,93.09659763508373L78.68475,-59.180686149332274L79.2585,-2.6398336953587034L79.96050000000001,47.56172255675L80.0145,54.02394307321971L80.11575,61.90721994638443L80.77050000000001,68.3533491955863L80.946,68.18481085366672L81.0945,76.26986956596375L81.71549999999999,73.9580245249801L81.76950000000001,88.50897291633818L82.04625,79.1659882267316L82.458,-34.16539656453662L82.66725,4.328908085823059L83.09925000000001,58.28383347392082L83.22075000000001,73.2653632528252L83.28825,67.28337570362619L83.295,69.44435774617723L83.42325,69.98234686917728L83.57849999999999,55.87617024117044L83.70675,65.91787253154648L84.03750000000001,67.41531820098558L84.105,79.8353967335489L84.12525,80.85311044587029L84.2265,72.04107863373225L84.44925,57.82949831088382L85.11075,83.02322118812135L85.347,80.23376611537402L85.63725,53.18161975344023L85.67775,33.78812825679779L86.13,73.52828306621974L86.319,79.14924122558699L86.3865,73.66919217175906L86.62275000000001,84.11881250805324L87.075,80.42577825652228L87.291,81.7893879049354L87.68925,78.18980678253702L87.9255,86.4516484008895L87.99975,86.96782884664005L88.08075,77.77052022682295L88.1955,80.21960521075461L88.965,75.40769740276865L89.20124999999999,80.22471109363768L89.24175000000001,80.11026711265245L89.7075,83.96673382321993L90.0045,81.57206738326285L90.20025,91.27309013737572L90.234,79.47029295232561L90.29475,85.72894862294197L90.90225,83.49709574712647L90.9225,60.66260757711197L91.1115,34.68773619333905L91.179,55.13250908255577L91.5705,79.02753996517923L91.80675000000001,79.17786511447694L92.0295,76.82657289173868L92.03625,71.34806370735168L92.44125,85.33195701903766L93.27825,86.81127054161495L93.2985,89.86422748366991L93.67649999999999,81.59068580468494L93.852,89.97315298517545L93.87225000000001,85.09091219305992L94.014,89.77745694584316L94.06125,90.2778113649951L94.2165,88.46819953123727L94.33125,92.36156416601604L94.45275,85.72397536039352L94.49324999999999,85.20194488432672L94.87125,89.53831301132837L94.92525,91.12939600480927L96.02550000000001,83.713775270515L96.07275,84.11943140294817L96.255,83.07022036115328L96.633,77.78182979424793L96.849,-32.212753699885496L96.99075,26.89652730358972L97.281,57.49886844886673L97.30125,67.30786625875366L97.43625,64.34045680032835L97.48349999999999,71.41469068990813L97.659,71.79304913679758L98.1315,70.71958330935901L98.19225,78.95932890640364L98.2395,69.13760691218904L98.32725,75.13108085592586L98.47575,84.38436999254755L98.73225,84.14121060901216L98.93475,82.52653593156073L99.09,88.59810851679907L99.2115,88.91514479451708L99.684,90.21091177397304L100.17,82.65773428148692L100.19024999999999,79.10034852888849L100.46025,86.70149774352709L100.62225,86.63308775424957L101.061,78.35904506511157L101.58749999999999,83.7329020698865L101.62125,83.60501186052957L101.64150000000001,86.04903516835635L101.817,67.86286762356758L102.11399999999999,87.44361166490448L102.384,87.18321163786781L102.49875,85.41917699244287L102.97800000000001,90.9150520728694L103.113,91.35150559412108L103.16025,80.36346880263751L103.923,90.93176223503218L103.94325,86.82611665129662L104.08500000000001,88.687465151151L104.48325,83.86924314167764L104.55075,78.83065771063167L104.57775,64.79563925994766L104.7735,88.29311858614284L104.99625,23.635599573453277L105.34725,68.08080704013506L105.462,77.05958681967523L105.5565,80.99790974789194L105.66449999999999,65.90256225069362L105.77924999999999,78.04455804493692L106.04925,79.34103970064056L106.35975,81.1559342443943L106.3665,83.73057384623421L106.515,80.86492102344829L106.56225,80.87790308064884L106.75125,89.14644939369624L106.81875,88.60997066895166L106.92675,84.2424293955167L106.9875,77.49795596798259L107.08200000000001,83.04012291298972L107.33850000000001,75.4681649075614L107.35875,68.32006885939172L107.58825,80.5575955013434L107.61525,81.55799489219982L107.7705,85.64058664109972L107.81099999999999,86.44892231623331L107.8245,84.99211741156047L108.0945,81.03435086872842L108.135,86.3775578406122L108.22274999999999,87.61531079146597L108.25649999999999,83.17435679501956L108.6885,87.78092411822742L108.81675,51.65345037314627L108.8775,61.35036189688576L109.18124999999999,74.85676306154993L109.33649999999999,87.16297966904109L109.35000000000001,79.82142739163504L109.35675,79.95732639564407L109.755,81.08526970942813L109.836,84.89179749621285L110.82825,80.56409389774004L111.18599999999999,85.352601584461L111.321,80.70585766765807L111.53025000000001,84.71421886814964L111.591,79.0344656937652L111.70575000000001,91.25657890571487L111.82050000000001,83.77947391072908L112.02974999999999,77.15183163020346L112.37400000000001,74.62611419624751L112.52925,61.35854751865068L112.62375,49.890373541249176L113.12325,82.08917617135576L113.89275,65.67357113957405L114.54075,89.63807297415202L114.5745,83.13287610146735L114.66900000000001,80.61927869253687L114.77024999999999,87.58370294504694L114.81750000000001,87.90524831414223L115.02674999999999,87.02097276184294L115.6815,85.74769229690233L115.857,87.32411337561076L115.884,87.43594915668169L115.99199999999999,87.04967032869655L116.2755,88.53232883082495L116.70750000000001,89.44519143303235L116.72775,91.30823452605141L116.83575,88.38193737135992L117.48375,-51.338668935828736L117.8415,-0.5038800570699777L118.48275000000001,61.56155241198009L118.96875,73.57926821708679L119.27924999999999,77.77157382170358L119.46825,71.469315532181L119.8665,70.14893274505931L119.9745,81.57721010512775L120.18375,83.45695599251322L120.66975000000001,80.63716770211855L120.798,78.04132358233133L121.08825,72.84836071398522L121.22325000000001,82.45613663726381L121.61475,70.44659908612567L121.72949999999999,84.78951037923494L121.91175,86.4539324177636L122.0535,75.38130595617822L122.13449999999999,72.17174650231996L122.23575,82.83864315350849L122.26275,85.08360333906279L122.3775,85.79215694798363L122.62049999999999,82.56926915049553L122.8905,87.556000030703L123.11325000000001,86.59342690640024L123.61274999999999,86.12495294213295L123.85575,14.914530575275421L124.21350000000001,66.76950137813884L124.2405,68.33985876043636L124.3755,63.247186336252426L124.70625,74.91898410187827L124.902,76.51322788000107L125.1855,81.75434666540887L125.52974999999999,72.75672006275917L125.631,35.26795752512086L125.685,56.06062302324507L125.7255,71.25389590197138L126.08324999999999,74.05474895570013L126.10350000000001,83.74560415082506L126.3735,74.7279224064615L126.54225,-51.31591718064416L126.738,23.034962077935546L126.9675,54.85774922039772L127.20375,64.84635180234909L127.35900000000001,74.68082008428043L127.467,72.78697960244284L127.82475,80.35040569967693L127.95975,71.92222871051894L127.97999999999999,62.442261950837235L128.0475,22.812204122543335L128.088,19.513774308893403L128.2365,56.01481743322478L128.79,61.26796046230528L129.74175,75.24718995889026L130.18725,83.10617520742944L130.19400000000002,85.977265463935L130.2345,79.24883172909418L130.29524999999998,69.56245615416101L130.41,80.44555342197418L130.491,84.73302885227731L130.5315,81.20994755956862L130.92975,82.78657493657535L131.26725000000002,81.81850543618202L131.5845,78.35067524843744L131.82750000000001,78.64695644378662L131.9895,86.94719164901308L132.00975,82.03182524442673L132.516,71.41658421357471L132.5565,64.28472678860027L132.75900000000001,79.47250329123602L132.81975,81.90736842817729L132.84675,80.35820082823435L132.88725,76.93777504232195L133.28549999999998,76.59750073485903L133.50825,80.77765684326488L133.515,77.71353768971231L133.569,88.50151670641368L133.596,83.77894342939058L133.71075000000002,84.22258791989749L134.14275,84.53401730457941L134.27100000000002,81.88087383243773L134.49375,87.13106237517462L134.5005,84.87048246132002L134.6625,80.14312748445404L135.18224999999998,88.7059288488494L135.6075,80.8726056350602L135.91799999999998,84.45621337493259L136.21499999999997,87.37778777215216L136.34324999999998,85.95802077982161L136.7955,85.97104704380035L137.187,-63.479471147060394L138.6315,-9.616606374581636L139.02974999999998,19.04857164621353L139.99499999999998,55.66366089052623L140.157,50.63524301846823L140.21775000000002,58.460527966419846L140.25825,60.549821350309585L140.56875,62.52336665325693L140.58900000000003,65.53319251537323L140.71725,64.99350143141216L140.8455,68.67496824264526L141.60825,69.06790019075075L141.70275,69.09051195780435L142.128,73.40529980924393L142.39125,73.5886768930488L142.53300000000002,70.65578556060791L143.01899999999998,77.617247958978L143.0865,79.26913000808821L143.11350000000002,74.41322172019217L143.43075,72.59708938664859L143.91674999999998,74.14648538827896L144.06525,80.92515275875726L144.18,78.60635988579855L144.4905,79.00364620155757L144.72,86.96432177556885L145.15875,75.79248793588744L145.52325,82.57088269790012L145.69875000000002,82.31235409114096L145.7325,69.61573268969852L146.21175,86.20795116821924L146.45475000000002,69.3048853609297L146.78549999999998,82.68797908557785L147.204,80.66747881637679L147.21075,81.7259806493918L147.37949999999998,80.36219417386583L147.44025,85.37110948893759L147.53475,82.11973779069052L147.81825,80.66459800799686L148.94549999999998,-30.09564688470627L149.15475,55.20624598860741L149.38424999999998,-36.96129845910602L149.53949999999998,34.50035839610629L149.796,65.13490417930815L149.86350000000002,65.31756658686531L150.11325,71.76749025119675L150.16725,75.78472964631186L150.33599999999998,75.21848502424028L150.4575,74.25538878639537L150.471,80.3289727800422L150.62625,85.52174408568276L150.63299999999998,80.7557081778844L150.63975,71.971592946185L150.66000000000003,78.05289839042557L150.78825,75.50364821487001L151.02450000000002,70.58252756132019L151.13925,78.43592802021239L151.23375,81.58916803863313L151.3755,80.74262297153473L151.497,79.55998850531047L151.5645,77.83444322811232L152.16525000000001,82.30889122684795L152.25975,83.27456619342166L152.30025,87.16387117240164L152.39475,84.0454218884309L152.4555,85.9630750881301L152.50275,79.8287067744467L152.5095,81.39125429259406L152.70525,88.16488209035661L152.77275,86.96343764000467L152.90775,86.74473934041129L153.3735,71.07449742820526L153.70425,77.20459978779155L153.711,85.16156199243333L153.92700000000002,74.09692958990732L154.18349999999998,78.21241854959062L154.93275,82.37263003322813L154.99349999999998,78.65198128090964L155.10150000000002,84.91409244802263L155.12175,88.17037109865082L155.1825,83.61415529582236L155.3715,84.19103901584941L155.60774999999998,-100.16722159915503L155.68875000000003,16.14405369758606L155.952,63.456895924276765L156.12075,66.38502029246753L156.2355,65.9404106206364L156.6945,66.44636456502808L156.843,73.13855610953436L157.032,73.71221273475221L157.3965,72.26335768236054L157.6935,80.0610133939319L158.29425,83.49823038776714L158.30100000000002,80.68698137336305L158.88825,87.59896901912158L158.94224999999997,84.06862307919396L159.246,89.45829874277113L160.06275000000002,5.492887291643342L160.10999999999999,30.639294180605134L160.30575,57.625498765044725L160.5555,76.70860710408952L160.95375,81.57941307624179L161.27775,62.6304649412632L161.54775,75.52127198378244L161.7165,74.16531747579575L161.84475,74.7694325711992L161.8785,71.96569870909053L162.03375,76.07040858268738L162.18224999999998,79.03588767846423L162.32399999999998,75.34304498963884L162.783,84.70866354968813L163.14075,83.06873943408328L163.53224999999998,82.06140694684451L163.82924999999997,81.88239159848955L163.85625000000002,82.33391963111029L164.025,84.59328385856416L165.27375,85.03879976934856L165.375,87.21240284707811L165.39525,85.94633545478183L165.54375000000002,87.98227125737402L165.58425,85.95546415448189L165.90825,80.33108733759985L166.0095,87.15587711334229L166.2795,79.90708539221022L166.32,77.17949770556555L166.41449999999998,87.34631254606775L166.48874999999998,88.01978070868385L166.5495,84.56894065936405L166.85999999999999,85.55420659648047L166.90725,87.74953730569945L166.93425,87.07181792457897L166.97475,86.58989036414359L167.373,85.44837556944952L167.55525,84.80056944158342L167.7105,86.85035670134756L168.183,85.1393480863836L168.33149999999998,81.22246544559795L168.55425,88.35512596037653L168.669,37.5669236580531L168.71625,61.874882688124956L168.98624999999998,71.1536570323838L169.07399999999998,79.06644193000263L169.10775,81.03490345345602L169.14825,80.74166515800688L169.16850000000002,78.57798650198511L169.6815,76.92194164792696L169.68825,85.73577857017517L169.70175,84.31268133388625L169.98525,88.88345590233803L170.0055,84.6218635406759L170.21475,84.56534517473644L170.397,83.1078255938159L170.41725000000002,91.72093427181242L170.451,86.45374085505802L170.829,89.48947188920444L170.93025,84.00942283537653L170.99099999999999,72.93194836378098L171.00449999999998,84.6157924764686L171.26775,85.77736978067291L171.33525,91.30379911263783L171.42974999999998,83.03310877084732L171.72,84.25706920690006L172.02375,88.79966195424396L172.3005,82.0457651151551L172.38825,83.82939073112276L172.39499999999998,85.01691741413539L172.53,83.02182867460779L172.5435,82.80592276983789L172.57725000000002,86.66037070420053L172.6515,82.76573144065009L173.394,87.32535853319696L173.40075000000002,86.97613235314685L173.54250000000002,86.53036593728594L174.0015,91.56222457024786L174.00825,86.82308111919296L174.02849999999998,92.58091083168982L174.03525,86.7281470629904L174.2985,83.99052443769243L174.35925,87.77992209792137L174.52125,68.0128170152505L174.744,84.96163683798578L174.91275,88.73425065808824L175.15575,85.78096526530054L175.41225,87.9728110068374L175.68225,82.67019322514534L175.73624999999998,82.19899317622185L175.95225,83.62200199895433L176.04000000000002,82.64032417866919L176.47199999999998,84.32306992676523L176.91074999999998,88.82614918218718L177.066,89.61064266827371L177.633,92.36563118961122L177.65324999999999,87.535281787316L177.687,85.50074586603377L178.13925,81.46508697999847L178.26074999999997,90.05814788407748L178.767,79.6630787120925L179.03025,90.5853210820092L179.037,91.67504763603209L179.62425,90.63428008887503L180.09675,69.43620159559778L180.18449999999999,88.47702615128622L180.38025,95.8097149696615L180.387,84.49425330758095L180.66375,83.60615386896662L180.82575,81.77225041058328L180.86625,90.83527357379594L181.00125000000003,85.04537921150524L181.04175,91.34714385867117L181.1835,83.99612396293215L181.22400000000002,92.08928725123404L181.629,85.53877843088573L182.02724999999998,88.19814769095844L182.24325,90.60516992542479L182.2905,77.89433604478836L182.85750000000002,87.74869000911713L183.73499999999999,88.49859905905193L183.90375,85.40678435895178L183.9915,89.37917597757445L184.17374999999998,88.62061713470352L184.221,92.96290896998511L184.29525,88.9666456911299L184.32899999999998,91.26049857338269L184.38299999999998,89.59781533479689L184.47750000000002,91.73779178990257L184.66649999999998,86.25861213604608L185.13225,82.21648432479964L185.1525,86.19087261623805L185.43599999999998,70.49756213360361L185.67225000000002,80.67636437879668L185.922,87.5349797076649L186.53625,88.68239610724977L186.64425,88.97005698084831L187.3665,91.1855754521158L187.41375,89.41482137640317L187.49474999999998,86.9550604555342L187.8255,92.76247543758815L187.839,91.45567886696921L187.91325,93.66651878754297L187.92,91.91230541467665L187.95374999999999,89.4620710545116L188.5275,92.43118247389792L188.54774999999998,92.58265699942906L189.54,90.61396707428825L189.56699999999998,89.25418867998653L189.57375,81.09217333462503L189.6885,85.46876962979633L189.78975,89.73336068458026L189.85725,95.9194288253784L189.9315,90.5091085963779L189.96525,86.99993033541573L189.999,88.52610304289392L190.02599999999998,89.2460472649998L190.0665,92.19876533746718L190.2285,89.3239469759994L190.296,93.25674405694006L190.4715,93.02435639169481L190.485,92.28143938051329L190.77525,90.01072137885623L190.9305,88.50443435377544L191.27474999999998,88.32432120376161L191.43675000000002,93.65137059821022L191.565,93.49012637469504L191.6595,93.60882157418463L191.88225,87.94787838392786L192.645,79.88324320316315L192.97575,95.08285975456236L193.38750000000002,91.65084442496298L193.5225,92.80527496669028L193.59675000000001,88.33241841197014L193.73175,90.29379211531744L194.13675,91.66230134831534L194.2245,95.55350721875826L194.47425,91.85050433874129L194.60925,95.88043844699858L194.68349999999998,76.86072999570105L195.26399999999998,93.29286099473634L195.3315,91.60507567392455L196.28325,93.7462825510237L196.533,86.30531659722328L196.5465,89.28934043645857L196.74224999999998,87.1435065832403L197.0055,91.01666135258144L197.3295,86.83943762713007L197.6535,95.67771352993117L197.667,95.00168874197536L197.72099999999998,89.86258446507983L197.9235,94.0980211496353L198.07874999999999,89.60657564467853L198.17325000000002,93.40055607424841L198.55800000000002,93.47821264796787L199.20600000000002,88.33846737278832L199.50975000000003,92.5240609149138L199.53675,90.58427485492494L199.94174999999998,89.5586112903224L200.25225,89.71365182929569L200.45475,93.03260832362704L200.60325,95.59869391388362L200.65725,90.02896404266356L201.0825,93.00333606865671L201.48075,91.06731495261191L201.68325,97.68005586498313L201.83175,91.3354437980387L202.0545,91.52015445298618L202.25025000000002,90.65625085764461L202.34475,94.63774907257822L202.554,94.32721855905321L202.81725,95.14880889985297L203.39775,97.85056877632935L203.8905,95.93125413854916L204.05925,91.3980184925927L204.147,91.36512864960564L204.19425,88.87496820092201L204.20775,93.72577797373135L204.74099999999999,95.89921159214443L205.13925,96.65231826570299L205.90875,87.80940065119002L206.01,94.81996204455693L206.361,91.78662554423013L206.54325,98.00259588658808L206.96175,94.47056640519035L207.1305,94.21482282545831L207.73125000000002,85.09150898456573L207.981,87.58124946885637L208.21725,99.18561347822347L208.32525,96.58655699921978L208.44,84.5971519516574L208.71675,92.8103661139806L209.35125000000002,89.69262413846121L209.44575,95.6879768702719L209.55374999999998,91.1061064004898L209.69549999999998,93.35595143503612L209.75625,91.41717476314967L209.86425000000003,95.75614372226927L210.2895,93.56280231806967L210.29625,92.84093510111173L210.39075,93.62111842632292L211.13325,96.82998162342442L211.221,98.2535946054591L211.29525,94.41588262054655L211.90275,98.5576672454675L211.97025,99.64341887334982L212.01074999999997,95.78593909078174L212.42249999999999,93.5411262611548L212.706,94.48974477913644L213.77249999999998,95.08235874440935L214.029,98.01117568545871L214.3395,91.38024736775292L214.353,95.63297627038425L214.62300000000002,96.35606654153929L214.62975,97.15135753320322L214.6365,100.06643721792433L214.7445,93.11202580067847L214.83225000000002,102.13733689818118L214.84575,99.543835737639L215.514,97.46977527274025L216.45225000000002,93.00780095325575L216.52650000000003,99.86692466007338L216.9585,96.31221341755655L216.999,96.98298496670192L217.03949999999998,100.92599749730692L217.06650000000002,95.84674551420741L217.07325,99.46470928854411L217.5795,100.39686814943948L217.84949999999998,91.22856654392348L218.22074999999998,98.57239547040727L218.95649999999998,97.45096528861258L219.03074999999998,99.78375697467062L219.08474999999999,100.31403938266966L219.40875,98.61099535557959L219.57075,90.0378422372871L219.84074999999999,96.70590793258613L219.86100000000002,93.81129598617552L220.07025,95.65141786469353L220.13774999999998,92.14812647302945L220.185,97.73458124200502L220.3065,85.75537690851424L220.69125,96.44929495288265L220.82625000000002,88.97345353497398L220.8465,94.35214381416638L220.98825,92.40438579850726L221.56875000000002,95.36231290300687L222.183,100.11421737737125L222.1965,96.27758477462662L222.4125,97.23914114303058L222.53400000000002,98.66182578272289L222.68925000000002,100.37311805784701L224.44424999999998,99.91779561009672L224.61975,97.44539891845649L224.91675,97.42381495899623L225.288,98.61762268841265L225.7065,96.63543864422374L225.79425,103.09786545899179L226.41525,99.6144192268451L226.61100000000002,101.36568916506236L226.87425,98.89935616983307L227.313,98.1158647040526L228.76425,100.59094695746897L229.29749999999999,100.22039837472968L229.47299999999998,100.15113372107346L229.6215,98.64696125355032L229.74975,98.01452066500981L229.88475,100.8138633204831L229.9185,98.74619810283183L230.0265,101.38542749153243L230.1075,98.45109575490156L230.2155,103.77267087664869L230.39775,103.04857121739123L230.85675,101.53008312152491L231.1875,95.93470226724942L231.27525,96.18239284555116L231.32924999999997,102.04854758414957L231.363,101.08261842860115L231.58575,100.94330445097552L231.9705,99.5966296825144L232.4565,102.83654445740912L232.67925,101.19475997322135L232.7265,98.78569685916105L232.78725,100.59249051080809L233.12475,100.93886535366376L233.145,98.9713616437382L233.28675,97.33478987548087L233.36775,99.22627266248067L233.496,102.86362479295995L233.62425000000002,97.77139443655808L234.54225,101.0551954905192L235.089,97.80956330564287L235.09574999999998,102.65553243623839L235.12275,101.56095050440894L235.32524999999998,98.56780901716814L235.4535,100.63023204770353L235.76399999999998,103.60875214305189L236.25,100.21872588495413L236.28375,95.8290259639422L236.45925,97.52780403693517L236.76975,101.49458139472537L236.87099999999998,98.65226238303714L237.17475000000002,102.21082329915629L237.4245,101.76117037071121L237.71475,99.50862135489781L237.84975,92.28455595837698L237.89025,99.13188013931115L237.97799999999998,93.92324965198834L238.167,98.07481134268973L238.437,100.2493538144562L238.45725000000002,94.82389644781748L238.72725,100.11128867831495L239.09175,97.96313396924072L239.17950000000002,101.73832283417383L239.34825,97.05920482012961L239.39550000000003,101.04926809834109L239.4225,100.14933229486147L240.09075,97.88254869646495L240.111,97.08615621924399L240.2595,102.40735926727453L240.381,99.89961188866032L240.597,105.67213667101329L241.0155,104.52915936874018L241.11,103.8612281050947L241.22475,104.48902329802512L241.23149999999998,105.10149715840815L241.515,102.77040743331114L242.18325,103.84496737851036L242.3655,101.29734916985034L242.56125,103.79800504446028L242.97975,104.00663156641853L243.351,103.11041650010479L243.67499999999998,104.85922927823331L243.70875,95.11232357223828L244.43775000000002,102.93166270852088L244.512,103.01298107703526L245.34225,102.44112219413121L245.7405,104.8524251182874L245.99025,102.11959524452685L246.132,101.85397513376341L246.38175,103.46120465298493L246.62475,105.85203615493243L246.6315,102.75178901188903L246.80025,107.94032015071974L247.21875,104.05791879693666L247.25925,103.5295335965024L247.3605,105.60209471484025L247.698,103.5356525513861L247.80599999999998,103.83295418653223L247.8735,106.04223213427596L247.98825000000002,90.95107322931288L248.14350000000002,103.58814810050858L248.454,102.0785381992658L248.89275,105.3231131053633L248.94,106.29533804290824L248.994,98.33412830366028L249.318,98.40817465715938L249.37875,104.75739159683386L249.642,102.9752469079362L249.77700000000002,103.45227488378683L249.86475000000002,96.14661482638782L250.425,102.29831588102711L250.8435,105.5057239383459L250.9245,105.23691725565327L251.14724999999999,103.64819195701016L251.16074999999998,98.3569205817249L251.43075,102.2110038101673L251.8695,101.30648523734675L252.369,99.2120307121012L252.68625,104.87504425313737L252.92925,105.48348056111071L253.125,102.64946505592928L253.32075,104.57559122145175L253.4085,103.44784683816962L253.42875,102.11072073380151L253.87425,103.50988368358877L253.8945,105.34153996407984L254.18474999999998,102.14615983433193L254.448,101.68492472999625L254.5155,91.65668708748287L254.53575,104.49976554512976L254.8935,100.0160488585631L255.27824999999999,99.89701105654238" fill="none"></path></g></g></g></g></g></g><g transform="translate(60, 178)" clip-path="url(#clip_1)"><clipPath id="clip_1"><rect width="270" height="21"></rect></clipPath><g><g><line x1="0" y1="0" x2="0" y2="5" style="visibility: inherit;" fill="rgb(0, 0, 0)" stroke="rgb(204, 204, 204)" stroke-width="1px"></line><line x1="33.75" y1="0" x2="33.75" y2="5" style="visibility: inherit;" fill="rgb(0, 0, 0)" stroke="rgb(204, 204, 204)" stroke-width="1px"></line><line x1="67.5" y1="0" x2="67.5" y2="5" style="visibility: inherit;" fill="rgb(0, 0, 0)" stroke="rgb(204, 204, 204)" stroke-width="1px"></line><line x1="101.25" y1="0" x2="101.25" y2="5" style="visibility: inherit;" fill="rgb(0, 0, 0)" stroke="rgb(204, 204, 204)" stroke-width="1px"></line><line x1="135" y1="0" x2="135" y2="5" style="visibility: inherit;" fill="rgb(0, 0, 0)" stroke="rgb(204, 204, 204)" stroke-width="1px"></line><line x1="168.75" y1="0" x2="168.75" y2="5" style="visibility: inherit;" fill="rgb(0, 0, 0)" stroke="rgb(204, 204, 204)" stroke-width="1px"></line><line x1="202.5" y1="0" x2="202.5" y2="5" style="visibility: inherit;" fill="rgb(0, 0, 0)" stroke="rgb(204, 204, 204)" stroke-width="1px"></line><line x1="236.25" y1="0" x2="236.25" y2="5" style="visibility: inherit;" fill="rgb(0, 0, 0)" stroke="rgb(204, 204, 204)" stroke-width="1px"></line><line x1="270" y1="0" x2="270" y2="5" style="visibility: inherit;" fill="rgb(0, 0, 0)" stroke="rgb(204, 204, 204)" stroke-width="1px"></line></g><g transform="translate(0, 8)"><text x="0" y="0" dx="0em" dy="0.95em" style="text-anchor: middle; visibility: hidden; font-family: &quot;Helvetica Neue&quot;, sans-serif; font-size: 12px; font-weight: 200;" fill="rgb(50, 49, 63)" stroke="none" stroke-width="1px">-5k</text><text x="33.75" y="0" dx="0em" dy="0.95em" style="text-anchor: middle; visibility: inherit; font-family: &quot;Helvetica Neue&quot;, sans-serif; font-size: 12px; font-weight: 200;" fill="rgb(50, 49, 63)" stroke="none" stroke-width="1px">0</text><text x="67.5" y="0" dx="0em" dy="0.95em" style="text-anchor: middle; visibility: inherit; font-family: &quot;Helvetica Neue&quot;, sans-serif; font-size: 12px; font-weight: 200;" fill="rgb(50, 49, 63)" stroke="none" stroke-width="1px">5k</text><text x="101.25" y="0" dx="0em" dy="0.95em" style="text-anchor: middle; visibility: inherit; font-family: &quot;Helvetica Neue&quot;, sans-serif; font-size: 12px; font-weight: 200;" fill="rgb(50, 49, 63)" stroke="none" stroke-width="1px">10k</text><text x="135" y="0" dx="0em" dy="0.95em" style="text-anchor: middle; visibility: inherit; font-family: &quot;Helvetica Neue&quot;, sans-serif; font-size: 12px; font-weight: 200;" fill="rgb(50, 49, 63)" stroke="none" stroke-width="1px">15k</text><text x="168.75" y="0" dx="0em" dy="0.95em" style="text-anchor: middle; visibility: inherit; font-family: &quot;Helvetica Neue&quot;, sans-serif; font-size: 12px; font-weight: 200;" fill="rgb(50, 49, 63)" stroke="none" stroke-width="1px">20k</text><text x="202.5" y="0" dx="0em" dy="0.95em" style="text-anchor: middle; visibility: inherit; font-family: &quot;Helvetica Neue&quot;, sans-serif; font-size: 12px; font-weight: 200;" fill="rgb(50, 49, 63)" stroke="none" stroke-width="1px">25k</text><text x="236.25" y="0" dx="0em" dy="0.95em" style="text-anchor: middle; visibility: inherit; font-family: &quot;Helvetica Neue&quot;, sans-serif; font-size: 12px; font-weight: 200;" fill="rgb(50, 49, 63)" stroke="none" stroke-width="1px">30k</text><text x="270" y="0" dx="0em" dy="0.95em" style="text-anchor: middle; visibility: hidden; font-family: &quot;Helvetica Neue&quot;, sans-serif; font-size: 12px; font-weight: 200;" fill="rgb(50, 49, 63)" stroke="none" stroke-width="1px">35k</text></g><line x1="0" y1="0" x2="270" y2="0" fill="rgb(0, 0, 0)" stroke="rgb(204, 204, 204)" stroke-width="1px"></line></g></g></g></g></svg>